<svg width="41" height="41" viewBox="0 0 41 41" fill="none" xmlns="http://www.w3.org/2000/svg">
<g clip-path="url(#clip0_23_104)">
<path d="M20.5 0.5C15.1969 0.5 10.1062 2.60844 6.35938 6.35781C2.60866 10.1087 0.501073 15.1956 0.5 20.5C0.5 25.8022 2.60938 30.8928 6.35938 34.6422C10.1062 38.3916 15.1969 40.5 20.5 40.5C25.8031 40.5 30.8937 38.3916 34.6406 34.6422C38.3906 30.8928 40.5 25.8022 40.5 20.5C40.5 15.1978 38.3906 10.1072 34.6406 6.35781C30.8937 2.60844 25.8031 0.5 20.5 0.5Z" fill="url(#paint0_linear_23_104)"/>
<path d="M10.4929 19.749C16.3241 17.209 20.2116 15.5344 22.1554 14.7253C27.7116 12.415 28.8647 12.0137 29.6178 12.0001C29.7835 11.9975 30.1522 12.0384 30.3929 12.2329C30.5929 12.397 30.6491 12.6189 30.6772 12.7746C30.7022 12.9303 30.7366 13.285 30.7085 13.5618C30.4085 16.7243 29.1054 24.3987 28.4429 27.9409C28.1647 29.4396 27.6116 29.9421 27.0772 29.9912C25.9147 30.0981 25.0335 29.2237 23.9085 28.4865C22.1491 27.3325 21.1554 26.6143 19.446 25.4884C17.471 24.1872 18.7522 23.4718 19.8772 22.3031C20.171 21.9971 25.2897 17.3425 25.3866 16.9203C25.3991 16.8675 25.4116 16.6706 25.2929 16.5668C25.1772 16.4628 25.0054 16.4984 24.8804 16.5265C24.7022 16.5665 21.8929 18.4253 16.4429 22.1025C15.646 22.6506 14.9241 22.9178 14.2741 22.9037C13.5616 22.8884 12.1866 22.5 11.1647 22.1681C9.91473 21.7609 8.91785 21.5456 9.00535 20.854C9.0491 20.494 9.54598 20.1256 10.4929 19.749Z" fill="white"/>
</g>
<defs>
<linearGradient id="paint0_linear_23_104" x1="2000.5" y1="0.5" x2="2000.5" y2="4000.5" gradientUnits="userSpaceOnUse">
<stop stop-color="#2AABEE"/>
<stop offset="1" stop-color="#229ED9"/>
</linearGradient>
<clipPath id="clip0_23_104">
<rect width="40" height="40" fill="white" transform="translate(0.5 0.5)"/>
</clipPath>
</defs>
</svg>
