<svg width="41" height="41" viewBox="0 0 41 41" fill="none" xmlns="http://www.w3.org/2000/svg">
<path d="M1.35369 20.3262C1.35275 23.6981 2.23775 26.9905 3.92056 29.8925L1.19275 39.8078L11.3852 37.1472C14.2044 38.675 17.363 39.4756 20.5727 39.4758H20.5812C31.1773 39.4758 39.8027 30.8919 39.8073 20.3412C39.8093 15.2287 37.8112 10.4212 34.1809 6.80424C30.5512 3.18763 25.7238 1.19484 20.5804 1.1925C9.98306 1.1925 1.35822 9.77592 1.35384 20.3262" fill="url(#paint0_linear_23_98)"/>
<path d="M0.667188 20.3199C0.666094 23.8132 1.58281 27.2234 3.32562 30.2293L0.5 40.5L11.058 37.7441C13.967 39.3231 17.2423 40.1556 20.5752 40.1568H20.5837C31.56 40.1568 40.4953 31.2642 40.5 20.3358C40.5019 15.0395 38.4319 10.0592 34.6719 6.31271C30.9114 2.56668 25.9114 0.502178 20.5837 0.5C9.60562 0.5 0.671563 9.39141 0.667188 20.3199ZM6.95484 29.7116L6.56062 29.0886C4.90344 26.4654 4.02875 23.434 4.03 20.3212C4.03344 11.2377 11.4591 3.8475 20.59 3.8475C25.0119 3.84937 29.1675 5.56543 32.2931 8.67898C35.4186 11.7928 37.1384 15.9321 37.1373 20.3346C37.1333 29.4181 29.7075 36.8092 20.5837 36.8092H20.5772C17.6064 36.8076 14.6928 36.0134 12.1519 34.5125L11.5472 34.1555L5.28188 35.7908L6.95484 29.7116Z" fill="url(#paint1_linear_23_98)"/>
<path d="M15.6059 12.0339C15.2331 11.209 14.8408 11.1924 14.4862 11.1779C14.1959 11.1655 13.8641 11.1664 13.5325 11.1664C13.2006 11.1664 12.6614 11.2907 12.2056 11.7861C11.7494 12.282 10.4637 13.4804 10.4637 15.9178C10.4637 18.3551 12.247 20.7108 12.4956 21.0417C12.7445 21.3719 15.9383 26.5338 20.9964 28.5196C25.2002 30.1698 26.0556 29.8416 26.968 29.7589C27.8805 29.6764 29.9123 28.5608 30.3269 27.404C30.7417 26.2473 30.7417 25.2558 30.6173 25.0486C30.493 24.8422 30.1611 24.7182 29.6634 24.4705C29.1658 24.2229 26.7191 23.0242 26.263 22.8589C25.8067 22.6937 25.475 22.6112 25.1431 23.1073C24.8112 23.6026 23.8583 24.7182 23.5678 25.0486C23.2777 25.3797 22.9872 25.421 22.4897 25.1732C21.9917 24.9246 20.3891 24.4021 18.4877 22.7145C17.0083 21.4013 16.0095 19.7797 15.7192 19.2836C15.4289 18.7883 15.6881 18.5199 15.9377 18.273C16.1612 18.051 16.4355 17.6945 16.6845 17.4053C16.9327 17.116 17.0155 16.9096 17.1814 16.5792C17.3475 16.2485 17.2644 15.9591 17.1402 15.7113C17.0155 15.4636 16.0484 13.0134 15.6059 12.0339Z" fill="white"/>
<defs>
<linearGradient id="paint0_linear_23_98" x1="1931.92" y1="3862.72" x2="1931.92" y2="1.1925" gradientUnits="userSpaceOnUse">
<stop stop-color="#1FAF38"/>
<stop offset="1" stop-color="#60D669"/>
</linearGradient>
<linearGradient id="paint1_linear_23_98" x1="2000.5" y1="4000.5" x2="2000.5" y2="0.5" gradientUnits="userSpaceOnUse">
<stop stop-color="#1FAF38"/>
<stop offset="1" stop-color="#60D669"/>
</linearGradient>
</defs>
</svg>
