<svg width="30" height="29" viewBox="0 0 30 29" fill="none" xmlns="http://www.w3.org/2000/svg">
<path fill-rule="evenodd" clip-rule="evenodd" d="M6.85617 14.3014V20.6576H13.2123V14.3014H6.85617ZM11.6233 19.0685V15.8904H8.44521V19.0685H11.6233Z" fill="white"/>
<path fill-rule="evenodd" clip-rule="evenodd" d="M10.8288 2.21364e-07C9.84491 -0.00024105 8.88508 0.303935 8.08094 0.870799C7.2768 1.43766 6.66775 2.23945 6.33734 3.16616H0.5V5.13737L3.67808 7.54477V27.0137H1.29452C1.0838 27.0137 0.881711 27.0974 0.73271 27.2464C0.583708 27.3954 0.5 27.5975 0.5 27.8082C0.5 28.0189 0.583708 28.221 0.73271 28.37C0.881711 28.519 1.0838 28.6027 1.29452 28.6027H3.67808V28.6147H25.9247V28.6027H28.3082C28.5189 28.6027 28.721 28.519 28.87 28.37C29.019 28.221 29.1027 28.0189 29.1027 27.8082C29.1027 27.5975 29.019 27.3954 28.87 27.2464C28.721 27.0974 28.5189 27.0137 28.3082 27.0137H25.9247V7.57337L29.5 5.16597V3.16537H15.3202C14.9896 2.2388 14.3805 1.43719 13.5764 0.870475C12.7723 0.30376 11.8125 -0.000299495 10.8288 2.21364e-07ZM15.325 6.35616C15.5048 5.8457 15.5964 5.30834 15.5959 4.76712V4.75521H27.265L24.8878 6.35616H15.325ZM14.3819 7.94521C13.9347 8.44512 13.3871 8.84505 12.7749 9.11887C12.1626 9.39269 11.4995 9.53423 10.8288 9.53425C10.1581 9.53423 9.49492 9.39269 8.88266 9.11887C8.2704 8.84505 7.72281 8.44512 7.27567 7.94521H5.26712V27.0137H14.8014V14.3014H22.7466V27.0137H24.3356V7.94521H14.3819ZM6.06164 4.76712C6.06164 5.32408 6.15699 5.85879 6.33258 6.35616H4.73956L2.62614 4.75521H6.06164V4.76712ZM11.6233 3.9726V2.38356H10.0342V3.9726H8.44521V5.56164H10.0342V7.15068H11.6233V5.56164H13.2123V3.9726H11.6233ZM21.1575 15.8904V27.0137H16.3904V15.8904H21.1575Z" fill="white"/>
</svg>
