<svg width="254" height="60" viewBox="0 0 254 60" fill="none" xmlns="http://www.w3.org/2000/svg">
<path fill-rule="evenodd" clip-rule="evenodd" d="M92.5323 0.373077C91.7648 0.572349 90.7697 0.896976 90.3211 1.09453C85.6559 3.14898 82.5673 8.13402 83.213 12.5679C83.6729 15.7262 84.7643 17.5345 87.9826 20.4714C93.6908 25.6804 105.261 36.1134 105.559 36.3207C105.845 36.519 106.165 36.2969 107.895 34.7014C108.998 33.6845 110.574 32.2328 111.399 31.4751L112.898 30.0979L112.105 24.7121C111.077 17.7307 111.185 18.1546 110.754 19.4163C110.56 19.9852 110.247 20.562 110.059 20.6982C109.797 20.8878 108.404 20.9457 104.098 20.9457C101.007 20.9457 98.338 20.8924 98.1669 20.8274C97.666 20.6369 97.2674 19.7038 97.4658 19.1864C97.8363 18.2207 97.9934 18.1898 103.038 18.0881L107.763 17.9928L109.255 12.1823C110.835 6.03157 111.048 5.53358 111.981 5.82162C112.442 5.96393 112.643 6.20455 112.759 6.75283C112.83 7.0866 114.424 17.9467 114.726 20.1504C114.787 20.6036 114.902 20.9036 114.981 20.8171C115.059 20.7306 115.409 19.5026 115.758 18.0881C116.107 16.6736 116.484 15.3678 116.597 15.1863C116.916 14.6719 117.834 14.428 118.559 14.6652C119.223 14.8822 119.323 15.0457 120.374 17.6118C120.717 18.4501 121.071 19.2163 121.161 19.3144C121.258 19.4213 121.522 19.307 121.821 19.0286C122.247 18.631 122.558 18.5506 123.986 18.4691L125.654 18.3739L126.429 17.2283C130.082 11.8305 127.875 4.51264 121.652 1.3883C119.537 0.326595 118.362 0.0844575 115.367 0.0936019C112.866 0.101413 112.419 0.155137 111.026 0.615597C109.417 1.14712 107.449 2.27416 106.397 3.2669L105.791 3.83881L104.474 2.83654C101.931 0.900215 99.1463 -0.0174657 95.8682 0.000251616C94.6103 0.00710993 93.4374 0.13818 92.5323 0.373077ZM110.086 13.0333L108.555 19.0406H103.591C99.3373 19.0406 98.6108 19.0818 98.5153 19.3289C98.4538 19.4874 98.5105 19.7446 98.641 19.9004C98.8402 20.1383 99.6988 20.1833 103.998 20.1808C106.814 20.1791 109.221 20.1128 109.348 20.0332C109.474 19.9537 109.95 18.4552 110.405 16.7031C110.861 14.951 111.286 13.517 111.351 13.5166C111.416 13.5163 111.523 13.8801 111.588 14.3255C114.376 33.2985 114.24 32.414 114.356 32.2989C114.407 32.248 115.246 29.0942 116.221 25.2901C117.196 21.4862 118.066 18.3893 118.155 18.4081C118.244 18.427 118.709 19.391 119.187 20.5502C119.753 21.9215 120.179 22.6967 120.407 22.7685C120.657 22.8468 121.164 22.5186 122.162 21.6335L123.567 20.3883L125.572 20.3336C127.449 20.2824 127.58 20.253 127.635 19.8745C127.667 19.6522 127.579 19.4268 127.44 19.3736C127.3 19.3207 126.174 19.3312 124.938 19.3971L122.69 19.5169L121.817 20.3654C121.287 20.8813 120.88 21.1427 120.778 21.0322C120.687 20.9322 120.261 19.9932 119.832 18.9454C118.553 15.821 118.444 15.5997 118.134 15.4819C117.971 15.4196 117.724 15.4878 117.585 15.633C117.446 15.7784 116.844 17.869 116.246 20.2789C114.86 25.8633 114.783 26.146 114.675 26.0384C114.564 25.9289 113.739 20.6165 112.685 13.2301C112.251 10.1915 111.833 7.55259 111.756 7.3657C111.666 7.1468 111.072 9.16295 110.086 13.0333ZM117.808 23.2349C117.526 24.3333 117.238 25.4366 117.167 25.6863C116.987 26.3266 117.257 26.1771 118.629 24.8765C119.751 23.8133 119.793 23.7414 119.485 23.405C119.308 23.2105 118.973 22.6433 118.742 22.1446L118.321 21.2378L117.808 23.2349Z" fill="#E31E25"/>
<path fill-rule="evenodd" clip-rule="evenodd" d="M19.1317 4.56441C15.6126 4.93361 12.7767 6.17268 10.6676 8.26218C8.36989 10.539 7.42426 12.6142 6.06043 18.3744C5.66357 20.0505 5.0102 22.7079 4.60834 24.2796L3.87787 27.1372L2.33138 27.1925C0.928706 27.2426 0.748541 27.2936 0.392441 27.7421C0.0436473 28.1814 0 28.5083 0 30.6784C0 33.3065 0.154784 33.926 0.895441 34.2603C1.22866 34.4106 6.77205 34.4718 20.0762 34.4718C38.7157 34.4718 38.7905 34.4703 39.295 34.0769L39.8017 33.6821V30.7664C39.8017 28.2911 39.7538 27.8112 39.4848 27.5891C39.291 27.4291 38.4892 27.2908 37.4178 27.2325L35.6677 27.1372L35.6217 16.3735C35.5896 8.87809 35.5102 5.4859 35.3602 5.20204C35.2416 4.978 34.9339 4.69929 34.6761 4.58289C34.1431 4.34228 21.3931 4.32703 19.1317 4.56441ZM44.7048 4.58517C43.813 5.08278 43.8395 4.62746 43.8395 19.4368C43.8395 32.9719 43.8528 33.4931 44.2068 33.9267C44.5677 34.3689 44.6405 34.3775 48.485 34.436C50.636 34.4687 52.6745 34.444 53.0152 34.3809C54.2541 34.1514 54.0653 34.3895 61.1798 24.0891C63.1337 21.26 64.9852 18.5843 65.294 18.1429C65.6028 17.7015 65.9637 17.3372 66.0958 17.3332C66.2844 17.3275 66.3361 19.0642 66.3361 25.4015C66.3361 33.0687 66.3548 33.4998 66.7037 33.9267C67.0683 34.3729 67.1025 34.3765 71.0098 34.3765C74.6129 34.3765 74.9827 34.3457 75.353 34.0136C75.7576 33.6509 75.7578 33.6438 75.7578 19.5085C75.7578 5.87263 75.7447 5.35006 75.3905 4.91647C75.0281 4.47258 74.9692 4.46592 70.92 4.41181C66.9683 4.35904 66.7849 4.37314 65.9527 4.79283C65.1649 5.19023 64.5935 5.94274 59.4718 13.3253C56.3822 17.7785 53.7211 21.4496 53.5579 21.4835C53.294 21.5383 53.2612 20.6468 53.2612 13.4556C53.2612 5.77757 53.2425 5.34321 52.8939 4.91647C52.5336 4.47506 52.4569 4.46572 48.808 4.41867C46.3209 4.38666 44.962 4.44172 44.7048 4.58517ZM136.037 4.59146C135.146 5.0744 135.172 4.62708 135.172 19.4368C135.172 32.9769 135.185 33.4931 135.539 33.9267C135.904 34.3731 135.937 34.3765 139.86 34.3765C143.595 34.3765 143.836 34.3548 144.21 33.9843C144.594 33.6033 144.607 33.3794 144.648 26.2845C144.691 18.767 144.774 18.024 145.402 19.559C147.34 24.2952 150.665 32.2653 150.964 32.8887C151.605 34.2268 152.378 34.4718 155.958 34.4718C158.661 34.4718 159.011 34.4325 159.79 34.0431C160.755 33.561 160.289 34.5312 164.771 23.6604C165.861 21.0148 166.826 18.8501 166.913 18.8501C167.001 18.8501 167.099 22.1484 167.13 26.1795L167.186 33.5091L167.624 33.9427C168.051 34.3661 168.158 34.3765 172.015 34.3765C175.938 34.3765 175.972 34.3731 176.336 33.9267C176.691 33.493 176.704 32.9763 176.704 19.4005C176.704 5.6385 176.696 5.31558 176.324 4.94771C176.115 4.74082 175.741 4.52116 175.493 4.45944C175.245 4.39771 172.835 4.37409 170.137 4.40686L165.232 4.46668L164.563 4.97267C164.059 5.35407 163.725 5.89416 163.209 7.16352C162.833 8.09015 161.612 11.0345 160.497 13.7063C159.383 16.3782 157.953 19.8043 157.32 21.32C156.688 22.8357 156.078 24.1062 155.966 24.1432C155.854 24.1803 155.621 23.8833 155.448 23.4831C155.03 22.5126 151.451 13.9346 149.595 9.45438C148.778 7.48243 147.946 5.65621 147.746 5.39598C147.067 4.51373 146.247 4.38838 141.132 4.38552C138.08 4.384 136.286 4.45639 136.037 4.59146ZM184.22 4.57641C183.217 4.97953 183.254 4.41238 183.248 19.4692C183.242 33.2091 183.25 33.5276 183.621 33.8955C183.83 34.1024 184.198 34.3194 184.438 34.3779C184.679 34.4364 190.962 34.46 198.401 34.4303L211.925 34.3765L212.293 33.9267C212.616 33.5305 212.66 33.1508 212.66 30.7357C212.66 28.2484 212.625 27.9593 212.276 27.6135C211.901 27.2427 211.635 27.2325 202.373 27.2325H192.855V25.0416V22.8508H199.848C206.63 22.8508 206.855 22.8389 207.346 22.4558L207.853 22.0611V19.2246C207.853 16.5522 207.829 16.3658 207.432 15.9999C207.025 15.6236 206.791 15.6114 199.933 15.6114H192.855V13.7063V11.8013H201.96C211.344 11.8013 212.086 11.747 212.472 11.0318C212.575 10.8401 212.66 9.48696 212.66 8.02481C212.66 5.69127 212.615 5.3112 212.293 4.91647L211.925 4.46668L198.304 4.42858C189.789 4.40476 184.51 4.4602 184.22 4.57641ZM233.33 4.56441C228.962 5.02277 225.343 7.0012 223.303 10.0469C221.97 12.0358 221.371 13.7938 219.708 20.5799L218.102 27.1372L216.543 27.1925C215.126 27.2426 214.947 27.2928 214.591 27.7421C214.242 28.1814 214.198 28.5083 214.198 30.6784C214.198 33.3065 214.353 33.926 215.094 34.2603C215.427 34.4106 220.97 34.4718 234.275 34.4718C252.914 34.4718 252.989 34.4703 253.493 34.0769L254 33.6821V30.8382C254 27.222 254.007 27.2325 251.5 27.2325H249.77V16.4777C249.77 9.00154 249.705 5.58134 249.556 5.25862C249.439 5.00334 249.132 4.69929 248.874 4.58289C248.341 4.34228 235.591 4.32723 233.33 4.56441ZM19.4465 12.0621C18.5793 12.373 17.4727 13.3171 17.0476 14.1087C16.6807 14.7917 13.6543 26.8455 13.7883 27.0896C13.8314 27.1683 16.5871 27.2325 19.9122 27.2325H25.9576V19.5169V11.8013L23.0254 11.8157C21.2418 11.8245 19.8399 11.9211 19.4465 12.0621ZM233.715 12.0341C232.849 12.3381 232.109 12.9089 231.499 13.7427C231.062 14.3409 230.732 15.3977 229.86 19.0044C229.259 21.4865 228.564 24.2801 228.315 25.2121C228.066 26.1441 227.908 26.9798 227.963 27.0696C228.019 27.1591 230.785 27.2325 234.111 27.2325H240.156V19.5169V11.8013L237.224 11.8163C235.611 11.8245 234.032 11.9226 233.715 12.0341ZM103.35 46.92C100.459 47.6643 98.7647 49.6422 98.7535 52.2843C98.7464 53.9692 99.26 55.0892 100.578 56.2633C102.703 58.1564 106.442 58.4349 109.044 56.8941C109.614 56.5569 110.079 56.1911 110.079 56.081C110.079 55.9709 109.746 55.5906 109.338 55.2361L108.598 54.5916L107.608 55.1498C105.71 56.2208 103.076 55.755 102.09 54.1738C100.807 52.1169 101.99 49.5086 104.453 48.9617C105.615 48.7037 107.095 49.0013 107.871 49.649L108.44 50.1232L109.308 49.4185C109.785 49.031 110.176 48.6774 110.176 48.6327C110.176 48.5877 109.938 48.3427 109.647 48.088C108.379 46.9777 105.325 46.4112 103.35 46.92ZM229.292 46.7834C228.301 47.0303 227.081 47.4691 227.081 47.5782C227.081 47.9137 227.734 49.3315 227.888 49.3315C227.986 49.3315 228.493 49.1931 229.015 49.0242C229.657 48.8159 230.405 48.7416 231.333 48.7935C232.537 48.8609 232.758 48.9333 233.154 49.389C233.493 49.7803 233.566 50.0125 233.447 50.3341C233.199 51.006 232.51 51.2306 230.686 51.2337L229.004 51.2365V52.1891V53.1416H230.802C232.965 53.1416 233.766 53.3731 233.936 54.0475C234.095 54.6726 233.848 55.0599 233.027 55.475C231.967 56.0115 229.472 55.8573 227.814 55.153C227.563 55.0463 227.4 55.1991 227.093 55.8288C226.875 56.2763 226.696 56.7013 226.696 56.7731C226.696 56.8451 227.324 57.1071 228.09 57.3553C229.905 57.9428 232.808 57.9895 234.353 57.4559C235.589 57.0292 236.631 56.0532 236.8 55.1643C236.983 54.1969 236.328 52.8534 235.477 52.4514L234.811 52.1371L235.561 51.4305C236.228 50.8014 236.31 50.6243 236.31 49.8121C236.31 48.9933 236.227 48.8177 235.493 48.0901C235.036 47.6375 234.335 47.177 233.906 47.0473C233.094 46.8013 229.943 46.6213 229.292 46.7834ZM0 52.2843V57.7138H1.24981H2.49962V54.6657C2.49962 52.9892 2.56461 51.621 2.64383 51.6254C2.72305 51.6296 3.52812 52.7225 4.43279 54.0544C5.9641 56.3083 6.1235 56.4792 6.74013 56.5289C7.39388 56.5815 7.4258 56.5472 9.13323 53.9709L10.8637 51.3596L10.9164 54.5367L10.9691 57.7138H12.3135H13.6577L13.6068 52.332L13.5556 46.9501L12.402 46.901L11.2483 46.8518L9.28782 49.8538C8.20953 51.505 7.20391 53.0218 7.05297 53.2247C6.79743 53.5684 6.62342 53.3628 4.51258 50.2242L2.24639 46.8549H1.12329H0V52.2843ZM16.536 52.2809V57.7138H21.2468H25.9576V56.666V55.6182H22.6889H19.4201V54.3799V53.1416H22.2082H24.9962V52.1891V51.2365H22.2082H19.4201V50.0983V48.96L22.5447 48.9076L25.6692 48.8552V47.9026V46.9501L21.1026 46.899L16.536 46.848V52.2809ZM29.7167 47.093C29.6757 47.2241 29.5974 48.4456 29.5426 49.8077C29.3894 53.6234 28.8958 55.3298 27.8823 55.5468C27.617 55.6036 27.2916 55.683 27.1593 55.7234C26.9861 55.7764 26.919 56.3833 26.919 57.8984V59.9999H28.265H29.6109V58.8569V57.7138H33.841H38.0712V58.8569V59.9999H39.4235H40.7757L40.7213 57.8567L40.6669 55.7135L39.8497 55.655L39.0326 55.5963V51.2257V46.8549H34.4119C30.8832 46.8549 29.7736 46.9111 29.7167 47.093ZM42.6218 46.9819C42.5512 47.0516 42.4936 49.4949 42.4936 52.4114V57.7138L43.8876 57.7018L45.2816 57.6896L48.0696 54.2624L50.8577 50.835L50.9102 54.2744L50.9625 57.7138H52.3042H53.6457L53.6686 52.8082C53.6811 50.1101 53.7028 47.6883 53.7167 47.4264C53.7413 46.9615 53.7098 46.9501 52.4017 46.9501H51.0613L48.2677 50.3625L45.4739 53.7749L45.4214 50.3149L45.3691 46.8549H44.0595C43.3392 46.8549 42.6922 46.912 42.6218 46.9819ZM56.7222 52.2843V57.7138H61.7214H66.7207L66.7434 58.2377C66.7561 58.5258 66.7507 58.8418 66.7316 58.94C66.7124 59.0379 66.7472 59.3166 66.8085 59.5591C66.911 59.9632 67.0243 59.9999 68.1664 59.9999H69.4126V57.8091V55.6182H68.5473H67.6821V51.2282V46.8381L66.288 46.8941L64.894 46.9501L64.8423 51.2842L64.7906 55.6182H62.1023H59.4141V51.2365V46.8549H58.0681H56.7222V52.2843ZM71.3354 52.2843V57.7138L72.6332 57.7108L73.9311 57.7079L76.7192 54.2919L79.5072 50.8759L79.5597 54.2948L79.612 57.7138H81.0527H82.4935L82.4425 52.332L82.3914 46.9501L81.1181 46.8943L79.8448 46.8385L77.5609 49.6462C76.3048 51.1903 74.9983 52.7585 74.6573 53.1312L74.0376 53.8084L74.0324 50.3316L74.0273 46.8549H72.6813H71.3354V52.2843ZM85.5078 46.9741C85.4328 47.0482 85.3717 49.4949 85.3717 52.4114V57.7138H86.8138H88.2559V55.523V53.3321H90.9478H93.6397V55.523V57.7138H95.0818H96.5238V52.276V46.8381L95.1298 46.8941L93.7358 46.9501L93.6814 49.0933L93.627 51.2365H90.9478H88.2686L88.2141 49.0933L88.1597 46.9501L86.9018 46.8947C86.2098 46.8642 85.5826 46.9 85.5078 46.9741ZM112.098 52.2843V57.7138H113.438H114.778L114.832 55.5706L114.886 53.4274H115.837H116.788L118.318 55.5706L119.849 57.7138H121.455H123.061L121.038 54.9366L119.016 52.1594L119.447 51.5551C119.684 51.2226 120.55 50.064 121.372 48.9802C122.194 47.8964 122.866 46.9749 122.866 46.9322C122.866 46.8897 122.225 46.8549 121.442 46.8549H120.019L118.427 49.0457L116.835 51.2365H115.813H114.79V49.0457V46.8549H113.444H112.098V52.2843ZM124.404 52.2843V57.7138H125.726H127.047L129.86 54.2632C131.407 52.3653 132.675 50.8864 132.679 50.9769C132.682 51.0674 132.704 52.5987 132.727 54.3799L132.768 57.6186L134.162 57.6746L135.556 57.7306V52.2927V46.8549H134.252H132.948L130.166 50.277C128.636 52.159 127.32 53.7021 127.24 53.7061C127.161 53.7099 127.096 52.17 127.096 50.284V46.8549H125.75H124.404V52.2843ZM138.58 46.9703C138.424 47.1254 138.397 56.9985 138.552 57.3987C138.661 57.6797 139.172 57.7138 143.268 57.7138H147.862V56.666V55.6182H144.584H141.306L141.364 54.4276L141.421 53.2369L144.161 53.1841L146.901 53.1312V52.1839V51.2365H144.113H141.325V50.0935V48.9504H144.497H147.67V47.9026V46.8549H143.184C140.716 46.8549 138.645 46.9069 138.58 46.9703ZM159.394 52.1142C157.969 55.0069 156.774 57.4502 156.739 57.5437C156.704 57.6373 157.311 57.7138 158.088 57.7138H159.5L160.01 56.5708L160.52 55.4277H163.335H166.15L166.668 56.5645L167.186 57.7013L168.58 57.7076C169.347 57.711 169.974 57.6361 169.974 57.5412C169.974 57.4464 168.797 55.0031 167.358 52.1117L164.742 46.8549H163.364H161.985L159.394 52.1142ZM171.833 46.9819C171.762 47.0516 171.705 49.4949 171.705 52.4114V57.7138H173.147H174.589V55.523V53.3321H177.275H179.96L180.014 55.4754L180.069 57.6186L181.463 57.6746L182.857 57.7306V52.2843V46.8381L181.463 46.8941L180.069 46.9501L180.014 49.0933L179.96 51.2365H177.275H174.589V49.0457V46.8549H173.275C172.552 46.8549 171.903 46.912 171.833 46.9819ZM189.845 47.093C189.609 47.4696 184.587 57.5313 184.587 57.6273C184.587 57.675 185.225 57.7138 186.004 57.7138H187.421L187.922 56.5708L188.422 55.4277L191.264 55.434L194.105 55.4403L194.623 56.5771L195.141 57.7138H196.597H198.052L197.35 56.3327C196.963 55.5729 195.756 53.1298 194.666 50.9032L192.684 46.8549H191.339C190.471 46.8549 189.941 46.9392 189.845 47.093ZM201.238 47.474C201.186 47.8146 201.1 49.2505 201.048 50.665C200.955 53.1957 200.586 55.0728 200.126 55.3548C200.005 55.4283 199.64 55.5424 199.313 55.6081C198.76 55.7198 198.713 55.7945 198.619 56.7156L198.518 57.7034L199.322 57.8228C202.148 58.2427 203.273 56.4854 203.56 51.208L203.683 48.9381L205.72 48.992L207.757 49.0457L207.809 53.3798L207.86 57.7138H209.203H210.545V52.2843V46.8549H205.939H201.333L201.238 47.474ZM213.622 52.2843V57.7138H214.931H216.241L217.287 56.4195C217.862 55.7076 219.111 54.1681 220.063 52.9986L221.793 50.8721L221.846 54.2929L221.898 57.7138H223.336H224.774V52.2843V46.8549H223.469H222.165L221.306 47.8727C220.834 48.4326 219.582 49.971 218.525 51.2912C217.467 52.6113 216.537 53.6964 216.458 53.7023C216.378 53.7082 216.313 52.17 216.313 50.284V46.8549H214.967H213.622V52.2843ZM239.002 52.2988V57.743L242.704 57.6807C246.319 57.6201 246.431 57.606 247.515 57.0785C248.86 56.4241 249.412 55.5371 249.426 54.0088C249.439 52.6255 248.956 51.7199 247.87 51.0872C247.046 50.6073 246.797 50.565 244.434 50.5035L241.886 50.4372V48.646V46.8549H240.444H239.002V52.2988ZM251.01 47.0958C250.959 47.2284 250.94 49.6502 250.968 52.4777L251.02 57.6186L252.414 57.6746L253.808 57.7306V52.2927V46.8549H252.456C251.543 46.8549 251.074 46.9332 251.01 47.0958ZM31.9746 51.2842C31.8475 52.6772 31.6069 54.021 31.3777 54.6181L30.9938 55.6182H33.5711H36.1484V52.2843V48.9504H34.1679H32.1874L31.9746 51.2842ZM162.481 51.2842C162.031 52.2533 161.621 53.1536 161.568 53.2845C161.496 53.4651 161.922 53.5227 163.333 53.5227C165.112 53.5227 165.188 53.5057 165.07 53.138C164.892 52.5817 163.453 49.522 163.37 49.522C163.331 49.522 162.931 50.3151 162.481 51.2842ZM190.287 51.428C189.796 52.4764 189.394 53.3765 189.394 53.4283C189.394 53.4802 190.216 53.5227 191.221 53.5227C192.226 53.5227 193.048 53.4476 193.048 53.356C193.048 53.1428 191.355 49.522 191.255 49.522C191.214 49.522 190.778 50.3796 190.287 51.428ZM241.886 54.1121V55.8444L243.826 55.779C245.676 55.7165 245.787 55.6887 246.23 55.1789C246.68 54.66 246.819 53.8783 246.574 53.2455C246.342 52.6459 245.435 52.3796 243.627 52.3796H241.886V54.1121Z" fill="white"/>
</svg>
