<svg width="160" height="39" viewBox="0 0 160 39" fill="none" xmlns="http://www.w3.org/2000/svg">
<path fill-rule="evenodd" clip-rule="evenodd" d="M58.2881 0.736282C57.8046 0.862488 57.1778 1.06809 56.8952 1.1932C53.9565 2.49435 52.0109 5.65155 52.4176 8.45968C52.7073 10.4599 53.3948 11.6052 55.4221 13.4652C59.0178 16.7643 66.306 23.3719 66.4941 23.5031C66.6737 23.6287 66.8755 23.488 67.9652 22.4776C68.66 21.8335 69.6532 20.9141 70.1725 20.4343L71.1169 19.562L70.6174 16.151C69.9699 11.7294 70.0381 11.9979 69.7664 12.797C69.644 13.1573 69.447 13.5226 69.3287 13.6089C69.1637 13.7289 68.2858 13.7656 65.5735 13.7656C63.6265 13.7656 61.9452 13.7318 61.8374 13.6907C61.5219 13.57 61.2708 12.9791 61.3958 12.6514C61.6292 12.0398 61.7281 12.0202 64.9056 11.9558L67.8823 11.8955L68.8223 8.21547C69.8173 4.31999 69.9517 4.0046 70.5392 4.18703C70.8297 4.27716 70.9564 4.42955 71.0293 4.77679C71.0738 4.98818 72.0779 11.8663 72.268 13.2619C72.307 13.5489 72.3795 13.739 72.4289 13.6842C72.4783 13.6294 72.6985 12.8517 72.9182 11.9558C73.138 11.0599 73.3758 10.233 73.4467 10.118C73.6476 9.7922 74.2261 9.63776 74.6827 9.78798C75.1008 9.9254 75.1643 10.0289 75.8262 11.6542C76.0424 12.185 76.2654 12.6703 76.3216 12.7325C76.3829 12.8001 76.5493 12.7277 76.7374 12.5515C77.0058 12.2997 77.2019 12.2487 78.1016 12.1971L79.1522 12.1368L79.6404 11.4113C81.9414 7.99262 80.5512 3.35801 76.631 1.37926C75.2992 0.706843 74.5584 0.55349 72.6722 0.559281C71.0966 0.564228 70.8153 0.598254 69.9376 0.889878C68.924 1.22651 67.6845 1.9403 67.0216 2.56904L66.6397 2.93125L65.8104 2.29648C64.2083 1.07014 62.4544 0.488938 60.3894 0.500159C59.597 0.504503 58.8582 0.587514 58.2881 0.736282ZM69.3453 8.75444L68.3813 12.5591H65.2542C62.5747 12.5591 62.1171 12.5851 62.0569 12.7416C62.0181 12.842 62.0538 13.0049 62.1361 13.1036C62.2616 13.2543 62.8024 13.2828 65.5106 13.2812C67.2845 13.2801 68.8008 13.2381 68.8804 13.1877C68.9599 13.1374 69.2596 12.1883 69.5466 11.0786C69.8334 9.96896 70.1016 9.06079 70.1425 9.06054C70.1834 9.0603 70.2507 9.29076 70.2918 9.57285C72.0477 21.589 71.962 21.0288 72.0351 20.956C72.0675 20.9238 72.5962 18.9263 73.2101 16.5171C73.8239 14.1079 74.3723 12.1465 74.4283 12.1585C74.4845 12.1704 74.777 12.781 75.0783 13.5151C75.4347 14.3836 75.7034 14.8746 75.8471 14.9201C76.0041 14.9696 76.3239 14.7618 76.9526 14.2012L77.8373 13.4126L79.1003 13.378C80.2826 13.3455 80.3657 13.3269 80.4001 13.0872C80.4202 12.9464 80.3648 12.8036 80.2769 12.77C80.1891 12.7364 79.4799 12.7431 78.701 12.7848L77.285 12.8607L76.7353 13.3981C76.4012 13.7248 76.1446 13.8904 76.0809 13.8204C76.0233 13.7571 75.755 13.1623 75.4848 12.4987C74.6788 10.52 74.6105 10.3798 74.4153 10.3052C74.3123 10.2658 74.1565 10.309 74.0693 10.4009C73.982 10.493 73.6024 11.817 73.2259 13.3433C72.3531 16.8801 72.3045 17.0592 72.2361 16.991C72.1664 16.9216 71.6466 13.5571 70.9826 8.87908C70.7095 6.95462 70.4463 5.2833 70.3976 5.16494C70.3408 5.02631 69.9664 6.3032 69.3453 8.75444ZM74.2098 15.2154C74.0322 15.9111 73.8505 16.6098 73.8061 16.768C73.6925 17.1735 73.8625 17.0788 74.7269 16.2551C75.4335 15.5817 75.4599 15.5362 75.2664 15.3232C75.1543 15.2 74.9436 14.8408 74.798 14.5249L74.5331 13.9506L74.2098 15.2154Z" fill="#E31E25"/>
<path fill-rule="evenodd" clip-rule="evenodd" d="M12.0515 3.39083C9.83473 3.62466 8.04833 4.4094 6.71976 5.73275C5.27237 7.17471 4.6767 8.48901 3.81759 12.1371C3.5676 13.1987 3.15603 14.8817 2.90289 15.8771L2.44276 17.6869L1.46858 17.7219C0.585011 17.7537 0.471522 17.786 0.247207 18.07C0.0274944 18.3482 0 18.5553 0 19.9297C0 21.5941 0.0975016 21.9865 0.564057 22.1982C0.773959 22.2934 4.26586 22.3322 12.6464 22.3322C24.3878 22.3322 24.4349 22.3312 24.7528 22.0821L25.0719 21.8321V19.9854C25.0719 18.4177 25.0418 18.1138 24.8723 17.9731C24.7502 17.8718 24.2451 17.7842 23.5703 17.7473L22.4678 17.6869L22.4389 10.8699C22.4187 6.12283 22.3686 3.97444 22.2742 3.79466C22.1994 3.65277 22.0056 3.47626 21.8432 3.40253C21.5075 3.25015 13.476 3.24049 12.0515 3.39083ZM28.1605 3.40398C27.5987 3.71913 27.6154 3.43077 27.6154 12.81C27.6154 21.3822 27.6238 21.7124 27.8468 21.987C28.0741 22.267 28.12 22.2724 30.5417 22.3095C31.8967 22.3302 33.1808 22.3146 33.3954 22.2746C34.1758 22.1292 34.0569 22.28 38.5384 15.7564C39.7693 13.9647 40.9355 12.2701 41.1301 11.9905C41.3246 11.711 41.5519 11.4803 41.6351 11.4778C41.7539 11.4741 41.7865 12.574 41.7865 16.5876C41.7865 21.4435 41.7983 21.7166 42.0181 21.987C42.2477 22.2696 42.2693 22.2718 44.7306 22.2718C47.0003 22.2718 47.2332 22.2523 47.4665 22.042C47.7213 21.8123 47.7214 21.8078 47.7214 12.8554C47.7214 4.21937 47.7132 3.88841 47.4901 3.6138C47.2618 3.33267 47.2247 3.32845 44.674 3.29419C42.1848 3.26077 42.0692 3.26969 41.545 3.5355C41.0488 3.78718 40.6888 4.26377 37.4625 8.93941C35.5164 11.7597 33.8401 14.0848 33.7372 14.1062C33.5711 14.141 33.5503 13.5763 33.5503 9.02194C33.5503 4.15917 33.5386 3.88407 33.319 3.6138C33.092 3.33424 33.0437 3.32833 30.7452 3.29853C29.1785 3.27826 28.3225 3.31313 28.1605 3.40398ZM85.6927 3.40796C85.1311 3.71383 85.1476 3.43052 85.1476 12.81C85.1476 21.3854 85.1559 21.7124 85.3792 21.987C85.6088 22.2697 85.6299 22.2718 88.101 22.2718C90.4537 22.2718 90.6051 22.2581 90.8408 22.0234C91.0829 21.7821 91.0909 21.6403 91.1165 17.1469C91.1438 12.3858 91.1964 11.9153 91.5919 12.8874C92.8124 15.887 94.9071 20.9347 95.0954 21.3295C95.4993 22.177 95.986 22.3322 98.2412 22.3322C99.9438 22.3322 100.165 22.3073 100.655 22.0607C101.263 21.7553 100.97 22.3698 103.793 15.485C104.48 13.8094 105.087 12.4384 105.142 12.4384C105.198 12.4384 105.259 14.5273 105.278 17.0804L105.314 21.7225L105.59 21.9971C105.859 22.2652 105.927 22.2718 108.356 22.2718C110.827 22.2718 110.848 22.2697 111.078 21.987C111.301 21.7122 111.31 21.385 111.31 12.787C111.31 4.07109 111.304 3.86657 111.07 3.63359C110.939 3.50256 110.703 3.36344 110.547 3.32435C110.391 3.28526 108.872 3.2703 107.173 3.29105L104.083 3.32893L103.662 3.6494C103.344 3.89095 103.134 4.23301 102.809 5.03693C102.572 5.6238 101.803 7.48853 101.101 9.18072C100.398 10.8729 99.4978 13.0428 99.0995 14.0027C98.701 14.9627 98.3172 15.7673 98.2464 15.7907C98.1757 15.8142 98.0289 15.6261 97.9202 15.3726C97.6568 14.758 95.4023 9.32527 94.2331 6.48782C93.7185 5.23891 93.1942 4.08231 93.0682 3.91749C92.6405 3.35874 92.1238 3.27935 88.9023 3.27754C86.9796 3.27657 85.8496 3.32242 85.6927 3.40796ZM116.044 3.39843C115.412 3.65374 115.436 3.29455 115.432 12.8306C115.428 21.5325 115.433 21.7342 115.667 21.9672C115.798 22.0982 116.03 22.2356 116.182 22.2727C116.333 22.3097 120.291 22.3247 124.977 22.3059L133.496 22.2718L133.728 21.987C133.932 21.736 133.959 21.4955 133.959 19.966C133.959 18.3907 133.937 18.2076 133.717 17.9886C133.481 17.7538 133.313 17.7473 127.479 17.7473H121.484V16.3597V14.9722H125.888C130.161 14.9722 130.302 14.9647 130.612 14.7221L130.931 14.4721V12.6756C130.931 10.9831 130.916 10.8651 130.666 10.6333C130.409 10.395 130.262 10.3873 125.942 10.3873H121.484V9.18072V7.97417H127.219C133.13 7.97417 133.597 7.93978 133.841 7.48684C133.906 7.36546 133.959 6.50845 133.959 5.58242C133.959 4.10451 133.931 3.8638 133.728 3.6138L133.496 3.32893L124.916 3.3048C119.552 3.28972 116.227 3.32483 116.044 3.39843ZM146.98 3.39083C144.228 3.68113 141.948 4.93413 140.663 6.86305C139.824 8.1227 139.446 9.2361 138.399 13.534L137.387 17.6869L136.405 17.7219C135.512 17.7537 135.4 17.7855 135.175 18.07C134.956 18.3482 134.928 18.5553 134.928 19.9297C134.928 21.5941 135.026 21.9865 135.492 22.1982C135.702 22.2934 139.194 22.3322 147.575 22.3322C159.316 22.3322 159.363 22.3312 159.681 22.0821L160 21.8321V20.0309C160 17.7406 160.005 17.7473 158.425 17.7473H157.335V10.9359C157.335 6.20102 157.294 4.03489 157.201 3.8305C157.127 3.66882 156.934 3.47626 156.771 3.40253C156.436 3.25015 148.404 3.24061 146.98 3.39083ZM12.2497 8.13935C11.7035 8.33626 11.0064 8.93423 10.7387 9.43555C10.5076 9.8681 8.60112 17.5022 8.68554 17.6568C8.71267 17.7066 10.4486 17.7473 12.5431 17.7473H16.3512V12.8607V7.97417L14.5042 7.98334C13.3807 7.98889 12.4976 8.05006 12.2497 8.13935ZM147.222 8.12161C146.676 8.31418 146.21 8.67566 145.826 9.20377C145.551 9.58263 145.343 10.2519 144.794 12.5362C144.415 14.1082 143.977 15.8775 143.82 16.4677C143.663 17.058 143.564 17.5873 143.599 17.6441C143.634 17.7008 145.377 17.7473 147.471 17.7473H151.279V12.8607V7.97417L149.432 7.9837C148.416 7.98889 147.422 8.05103 147.222 8.12161ZM65.1022 30.216C63.2815 30.6874 62.214 31.9401 62.2069 33.6135C62.2025 34.6805 62.526 35.3899 63.3561 36.1335C64.6949 37.3324 67.0498 37.5088 68.6894 36.533C69.0479 36.3194 69.3414 36.0877 69.3414 36.018C69.3414 35.9483 69.1314 35.7074 68.8746 35.4829L68.4079 35.0747L67.7845 35.4282C66.5888 36.1066 64.9301 35.8116 64.3087 34.8101C63.5005 33.5074 64.2454 31.8555 65.7972 31.5091C66.5289 31.3457 67.4611 31.5342 67.9505 31.9444L68.3087 32.2447L68.8554 31.7984C69.156 31.553 69.402 31.3291 69.402 31.3007C69.402 31.2723 69.2521 31.1171 69.0689 30.9558C68.2702 30.2526 66.3467 29.8938 65.1022 30.216ZM144.436 30.1295C143.812 30.2859 143.043 30.5638 143.043 30.6329C143.043 30.8454 143.454 31.7433 143.552 31.7433C143.613 31.7433 143.933 31.6557 144.261 31.5487C144.666 31.4168 145.137 31.3697 145.722 31.4026C146.48 31.4453 146.619 31.4911 146.869 31.7797C147.083 32.0276 147.128 32.1746 147.053 32.3783C146.897 32.8039 146.463 32.9461 145.314 32.948L144.254 32.9499V33.5531V34.1564H145.387C146.749 34.1564 147.254 34.303 147.361 34.7301C147.461 35.126 147.306 35.3713 146.789 35.6342C146.121 35.974 144.549 35.8763 143.505 35.4303C143.347 35.3627 143.244 35.4595 143.051 35.8583C142.913 36.1417 142.801 36.4109 142.801 36.4563C142.801 36.5019 143.196 36.6678 143.679 36.8251C144.822 37.1972 146.65 37.2267 147.624 36.8888C148.403 36.6185 149.059 36.0004 149.165 35.4374C149.28 34.8247 148.868 33.9739 148.332 33.7193L147.913 33.5202L148.385 33.0727C148.805 32.6743 148.857 32.5621 148.857 32.0477C148.857 31.5291 148.804 31.4179 148.342 30.9571C148.054 30.6704 147.613 30.3788 147.343 30.2966C146.831 30.1409 144.846 30.0269 144.436 30.1295ZM0 33.6135V37.0521H0.787282H1.57456V35.1216C1.57456 34.0599 1.6155 33.1933 1.66541 33.1961C1.71531 33.1988 2.22244 33.891 2.79231 34.7345C3.75691 36.1619 3.85732 36.2702 4.24575 36.3017C4.65756 36.335 4.67767 36.3132 5.75322 34.6816L6.8433 33.0278L6.87649 35.04L6.90968 37.0521H7.75655H8.6033L8.5712 33.6436L8.53899 30.2351L7.81226 30.204L7.08554 30.1728L5.8506 32.0741C5.17136 33.1199 4.5379 34.0805 4.44282 34.209C4.28185 34.4267 4.17223 34.2965 2.84257 32.3087L1.41505 30.1748H0.707585H0V33.6135ZM10.4164 33.6113V37.0521H13.3838H16.3512V36.3885V35.7249H14.2922H12.2332V34.9407V34.1564H13.9894H15.7456V33.5531V32.9499H13.9894H12.2332V32.2289V31.508L14.2014 31.4748L16.1696 31.4417V30.8384V30.2351L13.293 30.2028L10.4164 30.1704V33.6113ZM18.7192 30.3256C18.6934 30.4086 18.6441 31.1822 18.6095 32.0449C18.513 34.4615 18.2021 35.5423 17.5637 35.6797C17.3965 35.7156 17.1916 35.7659 17.1083 35.7915C16.9991 35.8251 16.9569 36.2095 16.9569 37.1691V38.5H17.8047H18.6525V37.7761V37.0521H21.3172H23.9818V37.7761V38.5H24.8337H25.6855L25.6512 37.1426L25.617 35.7853L25.1022 35.7482L24.5874 35.7111V32.943V30.1748H21.6768C19.454 30.1748 18.755 30.2104 18.7192 30.3256ZM26.8484 30.2553C26.8039 30.2994 26.7676 31.8468 26.7676 33.6939V37.0521L27.6457 37.0445L28.5238 37.0368L30.2801 34.8662L32.0363 32.6955L32.0694 34.8738L32.1023 37.0521H32.9475H33.7926L33.807 33.9453C33.8149 32.2364 33.8286 30.7026 33.8373 30.5367C33.8528 30.2423 33.8329 30.2351 33.0089 30.2351H32.1646L30.4048 32.3963L28.645 34.5575L28.6119 32.3661L28.579 30.1748H27.754C27.3003 30.1748 26.8927 30.211 26.8484 30.2553ZM35.7305 33.6135V37.0521H38.8796H42.0288L42.0431 37.3839C42.0511 37.5664 42.0477 37.7665 42.0357 37.8287C42.0236 37.8907 42.0455 38.0672 42.0841 38.2208C42.1487 38.4767 42.22 38.5 42.9395 38.5H43.7245V37.1125V35.7249H43.1794H42.6344V32.9445V30.1642L41.7562 30.1996L40.8781 30.2351L40.8455 32.98L40.813 35.7249H39.1196H37.4262V32.9499V30.1748H36.5784H35.7305V33.6135ZM44.9357 33.6135V37.0521L45.7532 37.0502L46.5708 37.0484L48.327 34.8849L50.0833 32.7214L50.1163 34.8867L50.1493 37.0521H51.0568H51.9644L51.9323 33.6436L51.9001 30.2351L51.098 30.1998L50.296 30.1644L48.8573 31.9426C48.066 32.9205 47.243 33.9138 47.0282 34.1498L46.6379 34.5787L46.6346 32.3767L46.6313 30.1748H45.7835H44.9357V33.6135ZM53.8632 30.2503C53.816 30.2972 53.7774 31.8468 53.7774 33.6939V37.0521H54.6858H55.5942V35.6646V34.2771H57.2899H58.9856V35.6646V37.0521H59.894H60.8024V33.6081V30.1642L59.9243 30.1996L59.0462 30.2351L59.0119 31.5925L58.9776 32.9499H57.2899H55.6022L55.568 31.5925L55.5337 30.2351L54.7413 30.2C54.3054 30.1807 53.9103 30.2034 53.8632 30.2503ZM70.6132 33.6135V37.0521H71.457H72.3009L72.3351 35.6948L72.3694 34.3374H72.9682H73.5672L74.5313 35.6948L75.4953 37.0521H76.507H77.5187L76.2445 35.2932L74.9705 33.5343L75.242 33.1516C75.3914 32.941 75.9371 32.2072 76.4548 31.5208C76.9724 30.8344 77.3959 30.2508 77.3959 30.2238C77.3959 30.1969 76.9923 30.1748 76.4991 30.1748H75.6025L74.5997 31.5623L73.597 32.9499H72.953H72.3089V31.5623V30.1748H71.461H70.6132V33.6135ZM78.3649 33.6135V37.0521H79.1972H80.0296L81.8013 34.8667C82.7758 33.6647 83.5749 32.7281 83.577 32.7854C83.5792 32.8427 83.5929 33.8125 83.6073 34.9407L83.6336 36.9918L84.5117 37.0273L85.3899 37.0628V33.6188V30.1748H84.5683H83.7469L81.9945 32.3421C81.0307 33.5341 80.2014 34.5114 80.1514 34.5139C80.1014 34.5163 80.0606 33.5411 80.0606 32.3466V30.1748H79.2127H78.3649V33.6135ZM87.2947 30.2479C87.1961 30.3461 87.1792 36.5991 87.2768 36.8526C87.3453 37.0305 87.6672 37.0521 90.2476 37.0521H93.1416V36.3885V35.7249H91.0767H89.012L89.0479 34.9708L89.084 34.2167L90.81 34.1833L92.536 34.1498V33.5499V32.9499H90.7797H89.0235V32.2259V31.502H91.0219H93.0204V30.8384V30.1748H90.1943C88.6399 30.1748 87.3352 30.2077 87.2947 30.2479ZM100.406 33.5057C99.5081 35.3377 98.7555 36.8851 98.7333 36.9444C98.711 37.0036 99.0934 37.0521 99.5829 37.0521H100.473L100.794 36.3282L101.115 35.6043H102.888H104.661L104.988 36.3242L105.314 37.0442L106.192 37.0482C106.675 37.0503 107.07 37.0029 107.07 36.9428C107.07 36.8827 106.329 35.3353 105.422 33.5041L103.774 30.1748H102.906H102.038L100.406 33.5057ZM108.241 30.2553C108.197 30.2994 108.16 31.8468 108.16 33.6939V37.0521H109.069H109.977V35.6646V34.2771H111.669H113.361L113.395 35.6344L113.429 36.9918L114.307 37.0273L115.185 37.0628V33.6135V30.1642L114.307 30.1996L113.429 30.2351L113.395 31.5925L113.361 32.9499H111.669H109.977V31.5623V30.1748H109.15C108.694 30.1748 108.286 30.211 108.241 30.2553ZM119.587 30.3256C119.439 30.5641 116.276 36.9365 116.276 36.9974C116.276 37.0275 116.677 37.0521 117.168 37.0521H118.061L118.376 36.3282L118.691 35.6043L120.481 35.6083L122.271 35.6122L122.597 36.3322L122.924 37.0521H123.84H124.757L124.315 36.1774C124.071 35.6962 123.311 34.1489 122.624 32.7387L121.376 30.1748H120.528C119.981 30.1748 119.648 30.2282 119.587 30.3256ZM126.764 30.5669C126.731 30.7826 126.677 31.692 126.645 32.5879C126.586 34.1907 126.353 35.3795 126.063 35.5581C125.988 35.6046 125.757 35.6769 125.552 35.7185C125.203 35.7892 125.174 35.8365 125.114 36.4199L125.051 37.0455L125.557 37.1211C127.337 37.3871 128.046 36.2741 128.227 32.9318L128.304 31.4941L129.587 31.5283L130.871 31.5623L130.903 34.3072L130.936 37.0521H131.781H132.627V33.6135V30.1748H129.725H126.824L126.764 30.5669ZM134.565 33.6135V37.0521H135.39H136.215L136.874 36.2324C137.236 35.7815 138.023 34.8065 138.622 34.0658L139.712 32.719L139.745 34.8855L139.778 37.0521H140.684H141.59V33.6135V30.1748H140.768H139.946L139.405 30.8194C139.108 31.174 138.319 32.1483 137.653 32.9845C136.987 33.8205 136.401 34.5078 136.351 34.5115C136.301 34.5152 136.26 33.5411 136.26 32.3466V30.1748H135.413H134.565V33.6135ZM150.553 33.6226V37.0706L152.884 37.0311C155.161 36.9928 155.232 36.9838 155.915 36.6498C156.762 36.2353 157.11 35.6735 157.119 34.7056C157.127 33.8295 156.823 33.256 156.139 32.8553C155.62 32.5513 155.463 32.5245 153.974 32.4856L152.369 32.4436V31.3092V30.1748H151.461H150.553V33.6226ZM158.117 30.3274C158.084 30.4114 158.072 31.9452 158.09 33.7359L158.123 36.9918L159.001 37.0273L159.879 37.0628V33.6188V30.1748H159.027C158.452 30.1748 158.157 30.2244 158.117 30.3274ZM20.1415 32.98C20.0614 33.8622 19.9099 34.7134 19.7655 35.0915L19.5236 35.7249H21.1471H22.7706V33.6135V31.502H21.5231H20.2755L20.1415 32.98ZM102.35 32.98C102.067 33.5938 101.808 34.164 101.775 34.2469C101.73 34.3613 101.998 34.3977 102.887 34.3977C104.007 34.3977 104.055 34.387 103.981 34.1541C103.869 33.8018 102.962 31.864 102.91 31.864C102.886 31.864 102.634 32.3662 102.35 32.98ZM119.866 33.0711C119.557 33.7351 119.304 34.3052 119.304 34.338C119.304 34.3708 119.821 34.3977 120.454 34.3977C121.087 34.3977 121.605 34.3502 121.605 34.2921C121.605 34.1571 120.538 31.864 120.476 31.864C120.45 31.864 120.175 32.4071 119.866 33.0711ZM152.369 34.771V35.8681L153.591 35.8268C154.756 35.7872 154.827 35.7696 155.105 35.4467C155.389 35.118 155.477 34.623 155.322 34.2222C155.176 33.8425 154.605 33.6738 153.466 33.6738H152.369V34.771Z" fill="#264892"/>
</svg>
