<svg width="363" height="53" viewBox="0 0 363 53" fill="none" xmlns="http://www.w3.org/2000/svg">
<path fill-rule="evenodd" clip-rule="evenodd" d="M132.241 0.534203C131.144 0.819538 129.722 1.28437 129.081 1.56725C122.414 4.50897 118 11.647 118.923 17.9958C119.58 22.518 121.14 25.1073 125.739 29.3126C133.897 36.7714 150.432 51.7103 150.859 52.0071C151.266 52.291 151.724 51.973 154.196 49.6884C155.772 48.2322 158.026 46.1536 159.204 45.0687L161.347 43.0968L160.213 35.3848C158.744 25.3883 158.899 25.9953 158.283 27.8019C158.005 28.6165 157.558 29.4425 157.289 29.6375C156.915 29.9089 154.924 29.9918 148.77 29.9918C144.353 29.9918 140.538 29.9155 140.294 29.8224C139.578 29.5497 139.008 28.2136 139.292 27.4727C139.821 26.0899 140.046 26.0457 147.255 25.9001L154.008 25.7637L156.141 17.4437C158.398 8.6365 158.703 7.92344 160.036 8.33589C160.695 8.53966 160.982 8.88419 161.148 9.66927C161.249 10.1472 163.527 25.6976 163.958 28.853C164.047 29.5019 164.211 29.9316 164.323 29.8077C164.435 29.6839 164.935 27.9255 165.433 25.9001C165.932 23.8746 166.471 22.0049 166.632 21.745C167.088 21.0085 168.4 20.6593 169.436 20.9989C170.385 21.3096 170.529 21.5437 172.031 25.2181C172.521 26.4183 173.027 27.5155 173.155 27.656C173.294 27.809 173.671 27.6453 174.098 27.2468C174.707 26.6775 175.152 26.5624 177.193 26.4456L179.576 26.3092L180.684 24.669C185.905 16.9398 182.751 6.46158 173.857 1.98788C170.835 0.467646 169.154 0.120933 164.875 0.134027C161.3 0.145211 160.662 0.222139 158.671 0.881463C156.371 1.64254 153.559 3.25634 152.055 4.67783L151.189 5.49673L149.307 4.0616C145.673 1.289 141.693 -0.0250088 137.008 0.000360285C135.211 0.0101806 133.535 0.197858 132.241 0.534203ZM157.327 18.6622L155.14 27.264H148.045C141.966 27.264 140.928 27.3229 140.792 27.6767C140.704 27.9037 140.785 28.2719 140.971 28.4951C141.256 28.8358 142.483 28.9002 148.627 28.8966C152.652 28.8942 156.092 28.7992 156.272 28.6852C156.453 28.5714 157.133 26.4257 157.784 23.9169C158.435 21.4081 159.043 19.3548 159.136 19.3543C159.229 19.3537 159.381 19.8748 159.475 20.5125C163.458 47.6796 163.264 46.413 163.43 46.2483C163.503 46.1754 164.703 41.6595 166.095 36.2125C167.488 30.7657 168.732 26.3313 168.859 26.3583C168.987 26.3853 169.65 27.7656 170.334 29.4255C171.143 31.3891 171.752 32.499 172.078 32.6019C172.434 32.714 173.16 32.244 174.586 30.9766L176.593 29.1937L179.459 29.1154C182.141 29.042 182.33 29 182.408 28.458C182.453 28.1396 182.328 27.8169 182.128 27.7408C181.929 27.665 180.32 27.68 178.553 27.7744L175.34 27.946L174.093 29.1609C173.335 29.8996 172.753 30.2739 172.609 30.1157C172.478 29.9725 171.869 28.6279 171.256 27.1276C169.428 22.6539 169.273 22.3369 168.83 22.1683C168.596 22.0791 168.243 22.1768 168.045 22.3847C167.847 22.5928 166.986 25.5863 166.131 29.0371C164.151 37.0333 164.041 37.4381 163.886 37.284C163.728 37.1271 162.548 29.5205 161.042 18.944C160.422 14.5931 159.825 10.8144 159.715 10.5468C159.586 10.2334 158.736 13.1203 157.327 18.6622ZM168.364 33.2696C167.96 34.8425 167.548 36.4222 167.448 36.7799C167.19 37.6967 167.575 37.4826 169.537 35.6202C171.14 34.0978 171.2 33.995 170.761 33.5132C170.506 33.2347 170.028 32.4226 169.698 31.7085L169.097 30.41L168.364 33.2696Z" fill="#E31E25"/>
<path fill-rule="evenodd" clip-rule="evenodd" d="M27.3418 6.5358C22.3125 7.06446 18.2596 8.83866 15.2454 11.8306C11.9617 15.0906 10.6103 18.0621 8.66116 26.3101C8.09399 28.71 7.16025 32.5151 6.58593 34.7656L5.542 38.8574L3.33185 38.9365C1.32724 39.0083 1.06976 39.0814 0.56085 39.7235C0.0623778 40.3526 0 40.8207 0 43.928C0 47.6911 0.221207 48.5782 1.2797 49.0569C1.75592 49.2721 9.67817 49.3597 28.6916 49.3597C55.3299 49.3597 55.4368 49.3575 56.1578 48.7942L56.8819 48.229V44.054C56.8819 40.5097 56.8135 39.8225 56.429 39.5045C56.1521 39.2753 55.0062 39.0773 53.475 38.9938L50.9739 38.8574L50.9082 23.445C50.8623 12.7125 50.7488 7.85526 50.5345 7.44881C50.3649 7.12802 49.9253 6.72893 49.5568 6.56226C48.7951 6.21773 30.5736 6.1959 27.3418 6.5358ZM63.8891 6.56553C62.6146 7.27805 62.6525 6.62608 62.6525 27.8314C62.6525 47.212 62.6715 47.9584 63.1774 48.5793C63.6932 49.2124 63.7973 49.2247 69.2915 49.3084C72.3656 49.3553 75.2789 49.3199 75.7659 49.2296C77.5364 48.9009 77.2665 49.2418 87.4341 34.4928C90.2265 30.442 92.8725 26.6107 93.3138 25.9786C93.7551 25.3466 94.2709 24.825 94.4597 24.8193C94.7293 24.8111 94.8032 27.2978 94.8032 36.3721C94.8032 47.3506 94.8298 47.9679 95.3286 48.5793C95.8496 49.2181 95.8985 49.2233 101.483 49.2233C106.632 49.2233 107.16 49.1791 107.69 48.7036C108.268 48.1843 108.268 48.1742 108.268 27.934C108.268 8.40902 108.249 7.66076 107.743 7.0399C107.225 6.40431 107.141 6.39477 101.354 6.3173C95.7067 6.24173 95.4445 6.26192 94.2552 6.86287C93.1294 7.4319 92.3127 8.50941 84.9931 19.0804C80.5778 25.4568 76.7746 30.7134 76.5413 30.7619C76.1643 30.8405 76.1173 29.5639 76.1173 19.267C76.1173 8.2729 76.0907 7.65094 75.5925 7.0399C75.0775 6.40786 74.9679 6.39449 69.7532 6.32711C66.1987 6.28129 64.2568 6.36012 63.8891 6.56553ZM194.415 6.57453C193.141 7.26604 193.179 6.62554 193.179 27.8314C193.179 47.2191 193.197 47.9584 193.704 48.5793C194.225 49.2184 194.273 49.2233 199.879 49.2233C205.217 49.2233 205.56 49.1922 206.095 48.6616C206.644 48.1161 206.662 47.7955 206.721 37.6364C206.782 26.8723 206.902 25.8084 207.799 28.0063C210.568 34.788 215.321 46.2003 215.748 47.0928C216.664 49.0089 217.768 49.3597 222.885 49.3597C226.747 49.3597 227.248 49.3035 228.362 48.7459C229.74 48.0555 229.075 49.4448 235.48 33.8791C237.038 30.0909 238.416 26.9912 238.542 26.9912C238.667 26.9912 238.806 31.714 238.85 37.4861L238.931 47.9813L239.557 48.6022C240.168 49.2083 240.321 49.2233 245.833 49.2233C251.439 49.2233 251.487 49.2184 252.008 48.5793C252.515 47.9581 252.534 47.2183 252.534 27.7793C252.534 8.07377 252.522 7.61139 251.991 7.08464C251.693 6.78839 251.158 6.47388 250.803 6.38549C250.449 6.29711 247.004 6.26328 243.149 6.3102L236.139 6.39586L235.183 7.12038C234.463 7.6665 233.986 8.43985 233.248 10.2574C232.71 11.5843 230.966 15.8002 229.372 19.626C227.779 23.4518 225.736 28.3576 224.832 30.5279C223.928 32.6982 223.057 34.5174 222.897 34.5703C222.736 34.6235 222.403 34.1982 222.157 33.6251C221.559 32.2355 216.444 19.9528 213.791 13.5377C212.624 10.7141 211.434 8.09914 211.148 7.72651C210.178 6.46324 209.006 6.28374 201.697 6.27965C197.335 6.27747 194.771 6.38113 194.415 6.57453ZM263.276 6.55298C261.842 7.1302 261.895 6.31811 261.885 27.8778C261.877 47.5517 261.889 48.0078 262.419 48.5345C262.718 48.8308 263.243 49.1415 263.587 49.2252C263.931 49.309 272.91 49.3428 283.541 49.3002L302.869 49.2233L303.395 48.5793C303.857 48.0119 303.92 47.4682 303.92 44.0101C303.92 40.4486 303.869 40.0345 303.37 39.5394C302.835 39.0085 302.454 38.9938 289.218 38.9938H275.616V35.8568V32.7197H285.609C295.303 32.7197 295.623 32.7028 296.326 32.1542L297.05 31.589V27.5275C297.05 23.7009 297.015 23.4341 296.448 22.9101C295.866 22.3713 295.532 22.3539 285.732 22.3539H275.616V19.626V16.8981H288.628C302.039 16.8981 303.099 16.8204 303.651 15.7963C303.799 15.5219 303.92 13.5843 303.92 11.4907C303.92 8.14933 303.855 7.60512 303.395 7.0399L302.869 6.39586L283.404 6.3413C271.234 6.3072 263.689 6.38658 263.276 6.55298ZM333.46 6.5358C327.217 7.19212 322.046 10.025 319.13 14.386C317.225 17.2339 316.368 19.7512 313.993 29.4681L311.697 38.8574L309.469 38.9365C307.444 39.0083 307.189 39.0803 306.679 39.7235C306.18 40.3526 306.118 40.8207 306.118 43.928C306.118 47.6911 306.339 48.5782 307.398 49.0569C307.874 49.2721 315.796 49.3597 334.81 49.3597C361.448 49.3597 361.555 49.3575 362.276 48.7942L363 48.229V44.1568C363 38.9788 363.01 38.9938 359.428 38.9938H356.955V23.5942C356.955 12.8893 356.862 7.99193 356.65 7.52983C356.482 7.16429 356.043 6.72893 355.675 6.56226C354.913 6.21773 336.691 6.19618 333.46 6.5358ZM27.7916 17.2716C26.5523 17.7168 24.9709 19.0687 24.3633 20.2021C23.839 21.1801 19.5138 38.4398 19.7053 38.7892C19.7669 38.9019 23.7052 38.9938 28.4572 38.9938H37.0969V27.946V16.8981L32.9063 16.9189C30.3574 16.9314 28.3538 17.0697 27.7916 17.2716ZM334.009 17.2315C332.772 17.6668 331.714 18.4841 330.843 19.6781C330.218 20.5346 329.747 22.0478 328.5 27.2122C327.642 30.7663 326.649 34.7664 326.292 36.1009C325.936 37.4354 325.71 38.6321 325.79 38.7606C325.87 38.8888 329.823 38.9938 334.575 38.9938H343.215V27.946V16.8981L339.024 16.9197C336.719 16.9314 334.463 17.0719 334.009 17.2315Z" fill="#264892"/>
</svg>
