<svg width="24" height="28" viewBox="0 0 24 28" fill="none" xmlns="http://www.w3.org/2000/svg">
<path fill-rule="evenodd" clip-rule="evenodd" d="M4.36364 2.07407C3.52015 2.07407 2.83637 2.77052 2.83637 3.62963V24.3704C2.83637 25.2295 3.52015 25.9259 4.36364 25.9259H19.6364C20.4799 25.9259 21.1636 25.2295 21.1636 24.3704V3.62963C21.1636 2.77052 20.4799 2.07407 19.6364 2.07407H4.36364ZM0.800003 3.62963C0.800003 1.62504 2.3955 0 4.36364 0H19.6364C21.6045 0 23.2 1.62504 23.2 3.62963V24.3704C23.2 26.375 21.6045 28 19.6364 28H4.36364C2.3955 28 0.800003 26.375 0.800003 24.3704V3.62963Z" fill="white"/>
<path fill-rule="evenodd" clip-rule="evenodd" d="M18.3638 8.56846H5.63657V6.49438H18.3638V8.56846Z" fill="white"/>
<path fill-rule="evenodd" clip-rule="evenodd" d="M14.5457 13.7538H5.63657V11.6797H14.5457V13.7538Z" fill="white"/>
</svg>
