<svg width="60" height="60" viewBox="0 0 60 60" fill="none" xmlns="http://www.w3.org/2000/svg">
<rect width="60" height="60" rx="20" fill="#264892"/>
<path fill-rule="evenodd" clip-rule="evenodd" d="M18.3467 13.8384C17.6655 14.0191 16.7823 14.3136 16.3842 14.4928C12.2437 16.3563 9.50255 20.878 10.0756 24.8997C10.4838 27.7644 11.4524 29.4046 14.3087 32.0685C19.3749 36.7934 29.6434 46.2567 29.9084 46.4447C30.1615 46.6246 30.4458 46.4231 31.9811 44.9759C32.96 44.0535 34.3593 42.7367 35.0911 42.0495L36.4216 40.8003L35.7179 35.9151C34.8056 29.5826 34.9017 29.9671 34.5189 31.1116C34.3464 31.6275 34.0689 32.1508 33.9022 32.2743C33.6697 32.4463 32.4329 32.4988 28.6113 32.4988C25.8681 32.4988 23.4993 32.4504 23.3474 32.3915C22.9029 32.2187 22.5491 31.3723 22.7252 30.903C23.0541 30.0271 23.1935 29.9991 27.6703 29.9068L31.8643 29.8204L33.1887 24.55C34.5906 18.9709 34.78 18.5192 35.6076 18.7805C36.017 18.9096 36.1955 19.1278 36.2983 19.6251C36.3609 19.9279 37.7756 29.7786 38.0435 31.7774C38.0985 32.1885 38.2005 32.4606 38.2701 32.3822C38.3398 32.3037 38.65 31.1898 38.9596 29.9068C39.2693 28.6237 39.6043 27.4394 39.7041 27.2747C39.9872 26.8081 40.8022 26.5869 41.4456 26.8021C42.0347 26.9989 42.1241 27.1472 43.0567 29.4748C43.3613 30.2351 43.6755 30.9301 43.7547 31.0191C43.841 31.1161 44.0755 31.0124 44.3405 30.7599C44.7187 30.3993 44.995 30.3263 46.2625 30.2524L47.7428 30.166L48.4307 29.1269C51.6727 24.2308 49.714 17.5932 44.1907 14.7593C42.3142 13.7962 41.2705 13.5766 38.613 13.5849C36.393 13.592 35.9967 13.6407 34.76 14.0584C33.332 14.5405 31.5856 15.5628 30.6516 16.4632L30.1135 16.982L28.9451 16.0729C26.6879 14.3165 24.2167 13.4842 21.3073 13.5002C20.1909 13.5064 19.1499 13.6253 18.3467 13.8384ZM33.9255 25.3219L32.5673 30.7708H28.1615C24.3862 30.7708 23.7415 30.8081 23.6566 31.0322C23.602 31.176 23.6524 31.4093 23.7682 31.5506C23.945 31.7665 24.707 31.8072 28.5227 31.805C31.0221 31.8034 33.1585 31.7433 33.2706 31.6711C33.3825 31.599 33.8049 30.2398 34.2092 28.6505C34.6133 27.0613 34.9911 25.7606 35.0488 25.7603C35.1064 25.7599 35.2011 26.09 35.2592 26.494C37.7331 43.7034 37.6123 42.9011 37.7153 42.7967C37.7609 42.7505 38.5058 39.8898 39.3708 36.4393C40.2357 32.989 41.0082 30.18 41.0872 30.1971C41.1664 30.2142 41.5785 31.0886 42.0029 32.1401C42.5052 33.3839 42.8837 34.087 43.0862 34.1522C43.3074 34.2232 43.7579 33.9254 44.6438 33.1226L45.8902 31.9932L47.6697 31.9436C49.3355 31.8971 49.4525 31.8705 49.501 31.5271C49.5293 31.3255 49.4513 31.1211 49.3274 31.0728C49.2037 31.0248 48.2046 31.0343 47.1071 31.0941L45.112 31.2028L44.3376 31.9725C43.8668 32.4404 43.5053 32.6775 43.4156 32.5773C43.3344 32.4865 42.9564 31.6348 42.5756 30.6844C41.4401 27.8505 41.3439 27.6497 41.0688 27.5429C40.9237 27.4864 40.7043 27.5482 40.5814 27.6799C40.4584 27.8118 39.9236 29.7081 39.393 31.894C38.1633 36.9593 38.0949 37.2157 37.9985 37.1181C37.9003 37.0187 37.1679 32.2002 36.2324 25.5004C35.8476 22.7442 35.4767 20.3506 35.4081 20.181C35.3281 19.9825 34.8006 21.8112 33.9255 25.3219ZM40.7794 34.5752C40.529 35.5715 40.2731 36.5722 40.2106 36.7988C40.0505 37.3796 40.2899 37.2439 41.5079 36.0642C42.5035 35.0998 42.5407 35.0346 42.268 34.7295C42.1101 34.5531 41.8132 34.0386 41.6081 33.5862L41.2348 32.7637L40.7794 34.5752Z" fill="#E31E25"/>
</svg>
