<svg width="24" height="28" viewBox="0 0 24 28" fill="none" xmlns="http://www.w3.org/2000/svg">
<path fill-rule="evenodd" clip-rule="evenodd" d="M11.1239 0.99811C11.1185 2.13743 11.0449 2.50293 10.6686 3.25778C10.5048 3.58609 10.3426 3.79966 10.0013 4.13617C9.61499 4.51704 9.46956 4.61805 8.98666 4.84114C7.40403 5.57213 6.56026 6.43724 6.13204 7.76798C6.02393 8.10405 6.00127 8.2923 6.00397 8.83254C6.00685 9.40127 6.02799 9.54724 6.16248 9.92636C6.24788 10.167 6.44263 10.574 6.59533 10.8307C6.8235 11.2143 6.87288 11.3446 6.87288 11.5625C6.87288 11.8017 6.84949 11.8501 6.63332 12.0584C6.11124 12.5614 5.27785 12.665 4.55003 12.3173C3.93934 12.0256 3.4786 11.5308 2.98538 10.637C2.75918 10.227 2.5558 9.9117 2.53348 9.93631C2.51122 9.96092 2.31551 10.2272 2.09866 10.528C0.820415 12.301 0.260855 13.6477 0.0535912 15.4501C-0.162465 17.3287 0.283458 19.6012 1.23415 21.4662C2.43963 23.8308 4.28877 25.6307 6.70806 26.7941C12.1115 29.3927 18.6427 27.6742 22.0125 22.7671C22.8089 21.6075 23.4698 20.0586 23.7501 18.6953C24.2603 16.2132 23.9948 14.1422 22.9028 12.0867C22.105 10.5848 20.9676 9.35571 19.3019 8.19544C19.0229 8.00113 18.7661 7.82551 18.7314 7.80522C18.6912 7.78171 18.5896 7.9501 18.4521 8.26829C17.8305 9.7065 16.9082 10.4648 16.0084 10.2776C15.6342 10.1997 15.3865 10.0294 15.2158 9.73281C15.0961 9.52482 15.0758 9.42019 15.0778 9.02396C15.0806 8.4812 15.2176 7.95737 15.5624 7.17141C15.9369 6.31785 15.973 6.16613 15.9739 5.4417C15.9744 4.96195 15.9471 4.69713 15.8721 4.45726C15.7274 3.9943 15.3743 3.32806 15.0456 2.8978C14.6762 2.41439 13.6572 1.46621 13.1283 1.11384C12.7961 0.892502 11.2047 -0.000218724 11.1427 4.01996e-08C11.1349 4.01996e-08 11.1265 0.449177 11.1239 0.99811ZM12.5687 3.10442C12.4723 3.47933 12.0438 4.33251 11.756 4.72262C11.4707 5.10934 10.9138 5.63979 10.5178 5.90187C10.3679 6.00113 9.93972 6.2304 9.56623 6.41137C9.02274 6.67476 8.81147 6.81275 8.50759 7.10283C8.07114 7.51957 7.81405 7.9653 7.72003 8.46819C7.62589 8.97194 7.71197 9.3159 8.13371 10.1213C8.56644 10.9475 8.67698 11.403 8.57924 11.9565C8.49085 12.4572 8.31228 12.7755 7.8911 13.1829C7.47601 13.5845 6.84103 13.9358 6.2729 14.0782C5.83628 14.1875 5.0393 14.1885 4.56181 14.0802C4.03556 13.9609 3.33283 13.6056 2.9391 13.26C2.75224 13.0959 2.58556 12.9617 2.56865 12.9617C2.52559 12.9617 2.32171 13.4092 2.15751 13.8641C1.25986 16.3511 1.76187 19.4523 3.46247 21.9256C6.29522 26.0455 11.8899 27.5163 16.4835 25.3488C19.7984 23.7847 21.9598 20.6974 22.2587 17.0994C22.4601 14.6765 21.5775 12.4284 19.7393 10.6816L19.3254 10.2884L18.8064 10.791C18.037 11.536 17.3255 11.8894 16.4554 11.9586C15.4685 12.037 14.3703 11.5298 13.8563 10.7582C13.5059 10.2321 13.385 9.77776 13.3875 8.99661C13.3905 8.08354 13.521 7.59275 14.1217 6.23472C14.4052 5.5939 14.3109 4.8594 13.849 4.11276C13.6502 3.79123 13.0475 3.13013 12.7929 2.95424L12.6353 2.84541L12.5687 3.10442ZM7.94521 14.4713C7.26835 14.6478 6.65045 15.153 6.32149 15.7987C6.11468 16.2047 6.11192 16.2189 6.11192 16.8693C6.11192 17.5005 6.11958 17.5436 6.29314 17.8877C6.62075 18.5372 7.11317 18.964 7.80751 19.2001C8.08016 19.2928 8.24419 19.3101 8.70482 19.2946C9.19725 19.278 9.31664 19.2537 9.64949 19.102C10.3434 18.7857 10.8842 18.1656 11.0701 17.4729C11.5543 15.6692 9.80292 13.987 7.94521 14.4713ZM11.3843 18.7667C9.61071 20.8164 8.14831 22.5222 8.13438 22.5573C8.1133 22.6106 9.29341 23.6264 9.37633 23.6264C9.41556 23.6264 15.8342 16.2001 15.8673 16.1165C15.8905 16.0579 14.7259 15.04 14.6357 15.04C14.6209 15.04 13.1577 16.717 11.3843 18.7667ZM8.22643 16.1488C7.46694 16.5385 7.73908 17.6641 8.59299 17.6649C9.10272 17.6654 9.51962 17.2063 9.43749 16.7347C9.38738 16.4468 9.12651 16.1539 8.85521 16.0807C8.56272 16.0019 8.49936 16.0088 8.22643 16.1488ZM15.018 19.3607C14.4324 19.4527 14.0471 19.6466 13.6024 20.0731C12.1339 21.4816 12.9572 23.9087 15.0158 24.2396C16.09 24.4124 17.1818 23.852 17.6812 22.8715C17.8903 22.4611 17.8927 22.4486 17.8927 21.7971C17.8927 21.1579 17.8869 21.1265 17.7 20.7552C17.2009 19.7642 16.0984 19.191 15.018 19.3607ZM14.9437 21.1123C14.6953 21.2593 14.5142 21.6487 14.5666 21.9229C14.6551 22.3864 15.1489 22.7077 15.5939 22.5915C16.5475 22.3424 16.3708 21.0017 15.3844 21.0017C15.229 21.0017 15.0583 21.0445 14.9437 21.1123Z" fill="white"/>
</svg>
