<svg width="40" height="34" viewBox="0 0 40 34" fill="none" xmlns="http://www.w3.org/2000/svg">
<path fill-rule="evenodd" clip-rule="evenodd" d="M8.34669 0.838399C7.66545 1.01915 6.78234 1.3136 6.38421 1.4928C2.24372 3.35628 -0.497446 7.87795 0.075598 11.8997C0.483794 14.7644 1.4524 16.4046 4.30875 19.0685C9.37485 23.7934 19.6434 33.2567 19.9084 33.4447C20.1615 33.6246 20.4458 33.4231 21.9811 31.9759C22.96 31.0535 24.3593 29.7367 25.0911 29.0495L26.4216 27.8003L25.7179 22.9151C24.8056 16.5826 24.9017 16.9671 24.5189 18.1116C24.3464 18.6275 24.0689 19.1508 23.9022 19.2743C23.6697 19.4463 22.4329 19.4988 18.6113 19.4988C15.8681 19.4988 13.4993 19.4504 13.3474 19.3915C12.9029 19.2187 12.5491 18.3723 12.7252 17.903C13.0541 17.0271 13.1935 16.9991 17.6703 16.9068L21.8643 16.8204L23.1887 11.55C24.5906 5.97093 24.78 5.51922 25.6076 5.7805C26.017 5.90958 26.1955 6.12783 26.2983 6.62515C26.3609 6.9279 27.7756 16.7786 28.0435 18.7774C28.0985 19.1885 28.2005 19.4606 28.2701 19.3822C28.3398 19.3037 28.65 18.1898 28.9596 16.9068C29.2693 15.6237 29.6043 14.4394 29.7041 14.2747C29.9872 13.8081 30.8022 13.5869 31.4456 13.8021C32.0347 13.9989 32.1241 14.1472 33.0567 16.4748C33.3613 17.2351 33.6755 17.9301 33.7547 18.0191C33.841 18.1161 34.0755 18.0124 34.3405 17.7599C34.7187 17.3993 34.995 17.3263 36.2625 17.2524L37.7428 17.166L38.4307 16.1269C41.6727 11.2308 39.714 4.59319 34.1907 1.75926C32.3142 0.796238 31.2705 0.576607 28.613 0.584902C26.393 0.591986 25.9967 0.640717 24.76 1.05838C23.332 1.54049 21.5856 2.56278 20.6516 3.46324L20.1135 3.98199L18.9451 3.07288C16.6879 1.31654 14.2167 0.484158 11.3073 0.500228C10.1909 0.506449 9.14994 0.625336 8.34669 0.838399ZM23.9255 12.3219L22.5673 17.7708H18.1615C14.3862 17.7708 13.7415 17.8081 13.6566 18.0322C13.602 18.176 13.6524 18.4093 13.7682 18.5506C13.945 18.7665 14.707 18.8072 18.5227 18.805C21.0221 18.8034 23.1585 18.7433 23.2706 18.6711C23.3825 18.599 23.8049 17.2398 24.2092 15.6505C24.6133 14.0613 24.9911 12.7606 25.0488 12.7603C25.1064 12.7599 25.2011 13.09 25.2592 13.494C27.7331 30.7034 27.6123 29.9011 27.7153 29.7967C27.7609 29.7505 28.5058 26.8898 29.3708 23.4393C30.2357 19.989 31.0082 17.18 31.0872 17.1971C31.1664 17.2142 31.5785 18.0886 32.0029 19.1401C32.5052 20.3839 32.8837 21.087 33.0862 21.1522C33.3074 21.2232 33.7579 20.9254 34.6438 20.1226L35.8902 18.9932L37.6697 18.9436C39.3355 18.8971 39.4525 18.8705 39.501 18.5271C39.5293 18.3255 39.4513 18.1211 39.3274 18.0728C39.2037 18.0248 38.2046 18.0343 37.1071 18.0941L35.112 18.2028L34.3376 18.9725C33.8668 19.4404 33.5053 19.6775 33.4156 19.5773C33.3344 19.4865 32.9564 18.6348 32.5756 17.6844C31.4401 14.8505 31.3439 14.6497 31.0688 14.5429C30.9237 14.4864 30.7043 14.5482 30.5814 14.6799C30.4584 14.8118 29.9236 16.7081 29.393 18.894C28.1633 23.9593 28.0949 24.2157 27.9985 24.1181C27.9003 24.0187 27.1679 19.2002 26.2324 12.5004C25.8476 9.7442 25.4767 7.35057 25.4081 7.18105C25.3281 6.9825 24.8006 8.81125 23.9255 12.3219ZM30.7794 21.5752C30.529 22.5715 30.2731 23.5722 30.2106 23.7988C30.0505 24.3796 30.2899 24.2439 31.5079 23.0642C32.5035 22.0998 32.5407 22.0346 32.268 21.7295C32.1101 21.5531 31.8132 21.0386 31.6081 20.5862L31.2348 19.7637L30.7794 21.5752Z" fill="#E31E25"/>
</svg>
