<svg width="28" height="28" viewBox="0 0 28 28" fill="none" xmlns="http://www.w3.org/2000/svg">
<path d="M19.25 28L8.75 24.2893L1.8235 26.9928C1.3755 27.1613 0.959583 27.1124 0.57575 26.8461C0.191917 26.5799 0 26.2053 0 25.7223V4.11183C0 3.79612 0.0758335 3.5081 0.2275 3.24776C0.379167 2.98742 0.599666 2.8066 0.889 2.70529L8.75 0L19.25 3.71072L26.1765 1.00719C26.6245 0.838739 27.0404 0.870546 27.4242 1.10261C27.8081 1.33468 28 1.68101 28 2.14161V24.0242C28 24.3623 27.9072 24.6556 27.7217 24.9042C27.5374 25.1539 27.2889 25.3295 26.9763 25.4308L19.25 28ZM18.375 25.8442V5.17026L9.625 2.08684V22.7608L18.375 25.8442ZM20.125 25.8442L26.25 23.8069V2.86785L20.125 5.17203V25.8442ZM1.75 25.1321L7.875 22.7608V2.08684L1.75 4.19311V25.1321Z" fill="white"/>
</svg>
