<svg width="14" height="20" viewBox="0 0 14 20" fill="none" xmlns="http://www.w3.org/2000/svg">
<path d="M4.5 5.5V7H3V8H4.5V9.5H5.5V8H7V7H5.5V5.5H4.5ZM3.5 11C3.36739 11 3.24021 11.0527 3.14645 11.1464C3.05268 11.2402 3 11.3674 3 11.5C3 11.6326 3.05268 11.7598 3.14645 11.8536C3.24021 11.9473 3.36739 12 3.5 12H10.5C10.6326 12 10.7598 11.9473 10.8536 11.8536C10.9473 11.7598 11 11.6326 11 11.5C11 11.3674 10.9473 11.2402 10.8536 11.1464C10.7598 11.0527 10.6326 11 10.5 11H3.5ZM3 14C3 13.8674 3.05268 13.7402 3.14645 13.6464C3.24021 13.5527 3.36739 13.5 3.5 13.5H10.5C10.6326 13.5 10.7598 13.5527 10.8536 13.6464C10.9473 13.7402 11 13.8674 11 14C11 14.1326 10.9473 14.2598 10.8536 14.3536C10.7598 14.4473 10.6326 14.5 10.5 14.5H3.5C3.36739 14.5 3.24021 14.4473 3.14645 14.3536C3.05268 14.2598 3 14.1326 3 14ZM3.5 16C3.36739 16 3.24021 16.0527 3.14645 16.1464C3.05268 16.2402 3 16.3674 3 16.5C3 16.6326 3.05268 16.7598 3.14645 16.8536C3.24021 16.9473 3.36739 17 3.5 17H10.5C10.6326 17 10.7598 16.9473 10.8536 16.8536C10.9473 16.7598 11 16.6326 11 16.5C11 16.3674 10.9473 16.2402 10.8536 16.1464C10.7598 16.0527 10.6326 16 10.5 16H3.5Z" fill="white"/>
<path fill-rule="evenodd" clip-rule="evenodd" d="M3.5 1.5C3.5 1.10218 3.65804 0.720644 3.93934 0.43934C4.22064 0.158035 4.60218 0 5 0H9C9.39782 0 9.77936 0.158035 10.0607 0.43934C10.342 0.720644 10.5 1.10218 10.5 1.5H12.5C12.8978 1.5 13.2794 1.65804 13.5607 1.93934C13.842 2.22064 14 2.60218 14 3V18.5C14 18.8978 13.842 19.2794 13.5607 19.5607C13.2794 19.842 12.8978 20 12.5 20H1.5C1.10218 20 0.720644 19.842 0.43934 19.5607C0.158035 19.2794 0 18.8978 0 18.5V3C0 2.60218 0.158035 2.22064 0.43934 1.93934C0.720644 1.65804 1.10218 1.5 1.5 1.5H3.5ZM9 4C9.39782 4 9.77936 3.84196 10.0607 3.56066C10.342 3.27936 10.5 2.89782 10.5 2.5H12.5C12.6326 2.5 12.7598 2.55268 12.8536 2.64645C12.9473 2.74021 13 2.86739 13 3V18.5C13 18.6326 12.9473 18.7598 12.8536 18.8536C12.7598 18.9473 12.6326 19 12.5 19H1.5C1.36739 19 1.24021 18.9473 1.14645 18.8536C1.05268 18.7598 1 18.6326 1 18.5V3C1 2.86739 1.05268 2.74021 1.14645 2.64645C1.24021 2.55268 1.36739 2.5 1.5 2.5H3.5C3.5 2.89782 3.65804 3.27936 3.93934 3.56066C4.22064 3.84196 4.60218 4 5 4H9ZM5 1C4.86739 1 4.74021 1.05268 4.64645 1.14645C4.55268 1.24021 4.5 1.36739 4.5 1.5V2.5C4.5 2.63261 4.55268 2.75979 4.64645 2.85355C4.74021 2.94732 4.86739 3 5 3H9C9.13261 3 9.25979 2.94732 9.35355 2.85355C9.44732 2.75979 9.5 2.63261 9.5 2.5V1.5C9.5 1.36739 9.44732 1.24021 9.35355 1.14645C9.25979 1.05268 9.13261 1 9 1H5Z" fill="white"/>
</svg>
