<svg width="28" height="27" viewBox="0 0 28 27" fill="none" xmlns="http://www.w3.org/2000/svg">
<path d="M5.93825 14.4507C4.15928 14.4507 2.71857 13.7915 1.61611 12.4732C0.538702 11.1296 0 9.38028 0 7.22535C0 5.07042 0.538702 3.3338 1.61611 2.01549C2.71857 0.671831 4.15928 0 5.93825 0C7.69217 0 9.12036 0.659155 10.2228 1.97746C11.3253 3.29577 11.8765 5.04507 11.8765 7.22535C11.8765 9.40563 11.3253 11.1549 10.2228 12.4732C9.12036 13.7915 7.69217 14.4507 5.93825 14.4507ZM21.8738 0.190141H24.0913L6.12617 26.8099H3.90873L21.8738 0.190141ZM5.93825 12.7394C7.166 12.7394 8.14318 12.2577 8.8698 11.2944C9.62148 10.3056 9.99732 8.9493 9.99732 7.22535C9.99732 5.50141 9.62148 4.15775 8.8698 3.19437C8.14318 2.20563 7.166 1.71127 5.93825 1.71127C4.68546 1.71127 3.69575 2.20563 2.96913 3.19437C2.24251 4.1831 1.87919 5.52676 1.87919 7.22535C1.87919 8.92394 2.24251 10.2676 2.96913 11.2563C3.69575 12.2451 4.68546 12.7394 5.93825 12.7394ZM22.0617 27C20.3078 27 18.8796 26.3408 17.7772 25.0225C16.6747 23.6789 16.1235 21.9296 16.1235 19.7746C16.1235 17.6197 16.6747 15.8831 17.7772 14.5648C18.8796 13.2211 20.3078 12.5493 22.0617 12.5493C23.8407 12.5493 25.2689 13.2211 26.3463 14.5648C27.4488 15.8831 28 17.6197 28 19.7746C28 21.9296 27.4488 23.6789 26.3463 25.0225C25.2689 26.3408 23.8407 27 22.0617 27ZM22.0617 25.2887C23.3145 25.2887 24.3042 24.7944 25.0309 23.8056C25.7575 22.8169 26.1208 21.4732 26.1208 19.7746C26.1208 18.0761 25.7575 16.7324 25.0309 15.7437C24.3042 14.7549 23.3145 14.2606 22.0617 14.2606C20.834 14.2606 19.8443 14.7549 19.0926 15.7437C18.366 16.707 18.0027 18.0507 18.0027 19.7746C18.0027 21.4986 18.366 22.8549 19.0926 23.8437C19.8443 24.807 20.834 25.2887 22.0617 25.2887Z" fill="white"/>
</svg>
