<svg width="24" height="34" viewBox="0 0 24 34" fill="none" xmlns="http://www.w3.org/2000/svg">
<path d="M12 34C18.6667 24.8462 24 17 24 11.7692C24 8.64784 22.7357 5.65429 20.4853 3.44713C18.2348 1.23997 15.1826 0 12 0C8.8174 0 5.76515 1.23997 3.51472 3.44713C1.26428 5.65429 0 8.64784 0 11.7692C0 17 5.33333 24.8462 12 34Z" fill="#E31E25"/>
<path d="M17.3334 11.7692C17.3334 13.1564 16.7715 14.4869 15.7713 15.4679C14.7711 16.4488 13.4145 16.9999 12 16.9999C10.5855 16.9999 9.22898 16.4488 8.22878 15.4679C7.22859 14.4869 6.66669 13.1564 6.66669 11.7692C6.66669 10.3819 7.22859 9.05141 8.22878 8.07045C9.22898 7.08949 10.5855 6.53839 12 6.53839C13.4145 6.53839 14.7711 7.08949 15.7713 8.07045C16.7715 9.05141 17.3334 10.3819 17.3334 11.7692Z" fill="white"/>
</svg>
