<svg width="28" height="30" viewBox="0 0 28 30" fill="none" xmlns="http://www.w3.org/2000/svg">
<path d="M14.587 19.8696V29H23.3913M25.1522 26.5652V16.8261L23.0391 13.9043C22.1247 12.64 21.6304 11.1022 21.6304 9.52174V1H18.1087V9.52174C18.1087 11.1022 17.6144 12.64 16.7 13.9043L15.1739 16.0141L15.0765 16.1163M15.0765 16.1163L0.5 1M15.0765 16.1163L27.5 29M5.78261 24.1304C5.15644 24.1309 4.53847 23.9829 3.97589 23.6978C3.41331 23.4126 2.92101 22.998 2.5366 22.4854C2.15219 21.9728 1.88583 21.3759 1.75788 20.7402C1.62993 20.1046 1.64377 19.447 1.79835 18.8177L2.84783 14.3913H8.71739L9.76687 18.8177C9.84983 19.1635 9.8913 19.5141 9.8913 19.8696C9.8913 20.9996 9.45842 22.0834 8.68789 22.8825C7.91736 23.6815 6.8723 24.1304 5.78261 24.1304ZM5.78261 24.1304V29M5.78261 29H9.30435M5.78261 29H2.26087" stroke="white"/>
</svg>
