<svg width="28" height="27" viewBox="0 0 28 27" fill="none" xmlns="http://www.w3.org/2000/svg">
<path d="M26.925 27L17.0068 17.4722H0.971599V14.8869H14.3155L0 1.13492L1.07651 0.100784L28 25.9659L26.925 27ZM23.96 17.4708L23.662 17.1845V14.8869H25.0061V17.4722L23.96 17.4708ZM26.5266 17.4708V14.8869H27.8723V17.4722L26.5266 17.4708ZM22.1415 16.1737L20.802 14.8883H22.14L22.1415 16.1737ZM23.662 12.8653V10.9665C23.662 10.0921 23.3706 9.37733 22.7877 8.82229C22.2049 8.26724 21.508 7.98972 20.697 7.98972H18.3403C17.1938 7.98972 16.2141 7.59097 15.4011 6.79345C14.5882 5.99594 14.1817 5.02559 14.1817 3.88239C14.1817 2.80054 14.5882 1.88326 15.4011 1.13054C16.2141 0.37782 17.1938 0.000973762 18.3403 0V1.29267C17.58 1.29267 16.9211 1.53708 16.3636 2.02591C15.8061 2.51474 15.5273 3.13162 15.5273 3.87655C15.5273 4.62148 15.8061 5.27779 16.3636 5.8455C16.9211 6.4132 17.58 6.69705 18.3403 6.69705H20.697C21.882 6.69705 22.8967 7.10262 23.7411 7.91377C24.5844 8.72394 25.0061 9.70208 25.0061 10.8482V12.8639L23.662 12.8653ZM26.5266 12.8653V9.57744C26.5266 7.97073 25.9438 6.6581 24.7781 5.63955C23.6123 4.62099 22.1679 4.11171 20.4446 4.11171V2.81904C21.2049 2.81904 21.8536 2.56051 22.3909 2.04344C22.9281 1.52637 23.1978 0.903165 23.1998 0.173817H24.5439C24.5439 0.878821 24.3949 1.4845 24.0969 1.99086C23.7989 2.49721 23.4218 2.90863 22.9656 3.2251C24.2874 3.63603 25.4354 4.38631 26.4096 5.47595C27.3847 6.56657 27.8723 7.93373 27.8723 9.57744V12.8639L26.5266 12.8653Z" fill="white"/>
</svg>
