<svg width="30" height="29" viewBox="0 0 30 29" fill="none" xmlns="http://www.w3.org/2000/svg">
<path fill-rule="evenodd" clip-rule="evenodd" d="M20.4466 0.56964C20.059 0.696351 19.8489 0.861394 18.9599 1.73684L18.1492 2.53519L17.7841 2.2885C17.2839 1.9505 16.8411 1.82996 16.2606 1.87384C15.2715 1.94863 14.3022 2.65374 13.8301 3.64193C13.6114 4.09979 13.5969 4.16685 13.5969 4.72219C13.5969 5.26288 13.6148 5.35207 13.8029 5.74909C13.9878 6.13944 14.1789 6.35454 15.6724 7.85388L17.3359 9.52387L13.6748 13.183L10.0136 16.8422L8.34273 15.1796C6.84258 13.6869 6.62738 13.4959 6.23681 13.3111C5.83957 13.1231 5.75033 13.1052 5.20935 13.1052C4.65372 13.1052 4.58662 13.1196 4.12852 13.3383C3.46313 13.6559 2.92258 14.1961 2.60542 14.8608C2.3899 15.3124 2.37244 15.391 2.37219 15.9099C2.37188 16.5485 2.47022 16.8724 2.80884 17.3484L3.0233 17.6498L2.16334 18.525C1.11431 19.5926 1 19.792 1 20.5533C1 21.3276 1.10608 21.5066 2.25682 22.6749L3.21082 23.6435L2.49953 24.3524C1.61326 25.2357 1.4369 25.5314 1.43865 26.1316C1.44027 26.6857 1.59829 27.0471 2.02596 27.4746C2.45369 27.902 2.81526 28.06 3.36971 28.0616C3.97018 28.0633 4.26608 27.8871 5.1498 27.0013L5.85915 26.2904L6.82824 27.2439C7.99719 28.394 8.17629 28.5 8.951 28.5C9.71243 28.5 9.91242 28.3855 10.9778 27.3398L11.8509 26.4828L12.216 26.728C12.7174 27.065 13.1601 27.185 13.7394 27.1413C14.7246 27.0668 15.6668 26.3836 16.1587 25.3869C16.3914 24.9154 16.4031 24.863 16.4031 24.2962C16.4031 23.7518 16.3855 23.6635 16.1971 23.266C16.0122 22.8757 15.8211 22.6606 14.3276 21.1612L12.6641 19.4912L16.3252 15.8321L19.9864 12.1729L21.6558 13.8295C23.4801 15.6398 23.641 15.7588 24.4437 15.8917C25.3063 16.0346 26.1287 15.7267 26.8087 15.0062C27.2736 14.5137 27.4313 14.241 27.5746 13.6817C27.749 13.001 27.5914 12.2067 27.1674 11.6305L26.9741 11.3678L27.8354 10.4914C28.8858 9.4224 29 9.22333 29 8.46182C29 7.68753 28.8939 7.50852 27.7432 6.3402L26.7892 5.37164L27.5071 4.65737C28.3876 3.78136 28.5655 3.47091 28.5593 2.82121C28.5544 2.30477 28.4166 1.99276 27.9942 1.54138C27.6234 1.14517 27.1902 0.956131 26.6559 0.957253C26.0336 0.958624 25.7145 1.14467 24.8555 2.00722L24.1408 2.72473L23.1718 1.77125C22.5173 1.12734 22.1035 0.770396 21.8974 0.672044C21.5233 0.493539 20.8292 0.444549 20.4466 0.56964ZM20.7095 1.57217C20.5399 1.634 20.2157 1.90949 19.665 2.4599L18.8665 3.258L22.5629 6.952L26.2593 10.6461L27.0775 9.8188C27.7225 9.1668 27.9124 8.9355 27.9745 8.72671C28.1425 8.16084 28.2132 8.24766 24.8011 4.82696C23.0975 3.11919 21.6326 1.68417 21.5457 1.63805C21.2866 1.50056 20.9737 1.47594 20.7095 1.57217ZM26.3808 2.00697C26.278 2.05353 25.8921 2.39651 25.5233 2.76917L24.8529 3.44666L25.462 4.05323L26.0712 4.65974L26.7685 3.95862C27.1521 3.573 27.4932 3.18408 27.5267 3.09439C27.6718 2.70497 27.3095 2.10675 26.8513 1.97954C26.5831 1.90506 26.6095 1.9035 26.3808 2.00697ZM16.0913 2.90803C15.489 3.06111 14.8253 3.67659 14.659 4.23628C14.5393 4.63898 14.5397 4.74276 14.6623 5.16272C14.758 5.49093 14.8996 5.64014 19.2925 10.0402C22.7115 13.4647 23.9001 14.6181 24.1339 14.7382C24.8299 15.0958 25.6518 14.8841 26.1923 14.2081C26.4607 13.8724 26.6615 13.4004 26.6615 13.1052C26.6615 13.032 26.617 12.8197 26.5627 12.6335C26.467 12.3053 26.3253 12.1561 21.9324 7.75602C18.7583 4.57672 17.3163 3.17361 17.1183 3.07176C16.7973 2.90666 16.3669 2.83804 16.0913 2.90803ZM14.3765 13.9153L10.7289 17.5614L11.3367 18.169L11.9446 18.7765L15.6075 15.1156L19.2704 11.4547L18.6798 10.862C18.3551 10.536 18.0746 10.2693 18.0567 10.2693C18.0388 10.2693 16.3827 11.91 14.3765 13.9153ZM4.71047 14.1645C3.9753 14.4043 3.38012 15.1679 3.38012 15.8712C3.38012 16.5936 3.25771 16.453 8.17149 21.3717C11.564 24.7675 12.7285 25.8964 12.9356 25.9902C13.3003 26.1553 13.8958 26.1533 14.2748 25.9857C14.6067 25.839 15.0746 25.3713 15.2464 25.0145C15.4361 24.6207 15.4643 24.2963 15.345 23.8801C15.2402 23.5144 15.2332 23.507 10.6768 18.9467C7.5669 15.8342 6.03146 14.3398 5.85572 14.2546C5.51049 14.087 5.05726 14.0514 4.71047 14.1645ZM2.92246 19.1963C2.27746 19.8483 2.08757 20.0796 2.02552 20.2884C1.8569 20.8562 1.77932 20.7615 5.26099 24.2416C8.06105 27.0404 8.45112 27.4081 8.68597 27.4695C9.19072 27.6014 9.38098 27.4968 10.3083 26.5776L11.1355 25.7576L7.43813 22.0633L3.74069 18.369L2.92246 19.1963ZM3.23146 25.0565C2.84794 25.4421 2.50433 25.8374 2.46785 25.935C2.26069 26.4899 2.9552 27.186 3.55679 27.0263C3.67441 26.995 4.00442 26.7152 4.44556 26.2726L5.14718 25.5685L4.53798 24.9619L3.92884 24.3554L3.23146 25.0565Z" fill="white"/>
<rect x="13.1448" y="12.0991" width="6" height="2.45393" transform="rotate(43.7024 13.1448 12.0991)" fill="#E31E25"/>
<path d="M1 0.5L29 28.5" stroke="white"/>
</svg>
