<svg width="28" height="27" viewBox="0 0 28 27" fill="none" xmlns="http://www.w3.org/2000/svg">
<path d="M26.3206 21.6257L25.1013 20.4155L26.5317 6.70108H14.3376L14.1549 5.36087H20.4002V0H21.7534V5.36087H28L26.3206 21.6257ZM26.0148 27L0 1.2397L0.966217 0.282786L26.9797 26.0458L26.0148 27ZM2.13136 21.8576V20.5174H20.0362V21.8576H2.13136ZM2.96496 26.2897C2.72047 26.2897 2.52065 26.2084 2.36547 26.0458C2.2094 25.8832 2.13136 25.6893 2.13136 25.4641V24.9495H20.0362V25.4655C20.0362 25.6897 19.9631 25.8832 19.8169 26.0458C19.6708 26.2084 19.4664 26.2897 19.2039 26.2897H2.96496ZM12.6353 11.8381V13.1783C12.3835 13.1444 12.1291 13.1221 11.872 13.1113C11.6149 13.1006 11.3524 13.0948 11.0844 13.0939C9.16282 13.0939 7.58404 13.3816 6.34807 13.957C5.11211 14.5324 4.28889 15.2414 3.8784 16.0839H16.921L18.2742 17.4242H2.13136C2.13136 15.8722 2.9388 14.5391 4.55367 13.4249C6.16854 12.3108 8.34546 11.7537 11.0844 11.7537C11.3533 11.7537 11.6163 11.7591 11.8734 11.7698C12.1296 11.7814 12.3835 11.8042 12.6353 11.8381Z" fill="white"/>
</svg>
