<svg width="24" height="28" viewBox="0 0 24 28" fill="none" xmlns="http://www.w3.org/2000/svg">
<path d="M10.5699 8.55556C9.13262 8.55556 7.73602 8.75156 6.38009 9.14356C5.02415 9.53556 3.74445 10.1132 2.54099 10.8764L4.17238 25.6076C4.211 25.8461 4.31315 26.0452 4.47883 26.2049C4.64553 26.3646 4.85593 26.4444 5.11004 26.4444H18.9204C19.1746 26.4444 19.3845 26.3646 19.5501 26.2049C19.7158 26.0452 19.8185 25.8461 19.8581 25.6076L21.5642 10.1111H20.4085C19.4825 10.1111 18.6257 10.0401 17.8379 9.898C17.0502 9.75593 15.9799 9.48681 14.627 9.09067C13.9836 8.88948 13.3198 8.75 12.6358 8.67222C11.9517 8.59444 11.2631 8.55556 10.5699 8.55556ZM2.36565 9.22911C3.6423 8.48867 4.97282 7.9323 6.35722 7.56C7.74263 7.18667 9.15955 7 10.608 7C11.35 7 12.091 7.04667 12.8309 7.14C13.5709 7.23333 14.2997 7.3837 15.0173 7.59111C16.3661 7.97482 17.3917 8.23148 18.0941 8.36111C18.7975 8.49074 19.5598 8.55556 20.3811 8.55556H21.7319L22.4683 1.55556H1.50421L2.36565 9.22911ZM5.1009 28C4.45037 28 3.89285 27.7905 3.42834 27.3716C2.96383 26.9526 2.70311 26.4211 2.64619 25.7771L0.016142 1.99578C-0.0519596 1.45652 0.0954245 0.989333 0.458294 0.594222C0.821164 0.199111 1.26789 0.00103704 1.79847 0H22.2046C22.7331 0 23.1788 0.198074 23.5417 0.594222C23.9046 0.99037 24.052 1.45704 23.9839 1.99422L21.3843 25.7787C21.3274 26.4216 21.0667 26.9526 20.6022 27.3716C20.1387 27.7905 19.5811 28 18.9296 28H5.1009ZM10.5699 26.4444H19.8581H4.17238H10.5699Z" fill="white"/>
</svg>
