<svg width="22" height="29" viewBox="0 0 22 29" fill="none" xmlns="http://www.w3.org/2000/svg">
<path fill-rule="evenodd" clip-rule="evenodd" d="M8.48318 0.582208C5.64536 1.08256 3.49694 3.26665 3.13023 6.024C3.1002 6.2496 3.0749 7.18774 3.07395 8.10872C3.07136 10.6107 2.98382 10.9632 1.92816 12.7224C1.33862 13.7048 1.05513 14.6353 1.00717 15.7452C0.92232 17.7102 1.59147 19.4073 2.98629 20.7646L3.4939 21.2586L3.16745 21.4958C2.58028 21.9225 1.94581 22.7325 1.66406 23.4153C1.33204 24.22 1.31551 24.3483 1.28824 26.3269L1.26283 28.1719L1.43224 28.3367C1.63162 28.5306 1.86946 28.5532 2.06794 28.397L2.20069 28.2926L2.23583 26.4966C2.2753 24.4773 2.30145 24.3054 2.68739 23.5287C2.87384 23.1534 3.01182 22.9745 3.43009 22.5655C4.22058 21.7925 4.92639 21.4952 6.2209 21.39C6.57653 21.3611 6.94341 21.3241 7.03619 21.3078C7.18845 21.2811 7.38198 21.4116 9.02369 22.6475C10.4136 23.694 10.8798 24.0169 11.0008 24.0169C11.1181 24.0169 11.4265 23.8174 12.1902 23.2475C12.7572 22.8244 13.278 22.417 13.3476 22.3422C13.5908 22.0806 13.4574 21.6635 13.103 21.5769C12.8996 21.5273 12.8136 21.5771 11.8759 22.2874C11.4143 22.637 11.022 22.9231 11.004 22.9231C10.9695 22.9231 8.32316 20.9425 8.20283 20.8267C8.14666 20.7725 8.18704 20.7023 8.40345 20.4782C8.74795 20.1212 9.00541 19.6517 9.11989 19.1715C9.16932 18.9642 9.21531 18.7892 9.22206 18.7826C9.2288 18.7761 9.4735 18.8187 9.76583 18.8773C10.3587 18.9964 11.4148 19.0212 11.9936 18.9299C14.5038 18.5336 16.5536 16.721 17.2255 14.3034C17.3747 13.7665 17.3759 13.7466 17.3967 11.5447C17.4221 8.86934 17.4852 9.08329 16.6523 9.02401C15.5319 8.94432 15.0105 8.45337 14.805 7.2846C14.6691 6.51134 14.4292 6.44035 13.6547 6.94432C11.8991 8.08679 9.87788 8.87372 7.73469 9.24905C7.0155 9.37501 6.93475 9.40951 6.84029 9.63145C6.74814 9.8478 6.84715 10.0986 7.06874 10.21C7.2083 10.2802 7.2995 10.2769 7.87897 10.1805C9.81064 9.85934 11.914 9.10249 13.5014 8.15739C13.9042 7.91763 13.9802 7.89603 13.9802 8.02132C13.9802 8.20262 14.3617 8.85255 14.6401 9.14536C14.9977 9.52163 15.5551 9.82073 16.0787 9.91731L16.4542 9.9866V11.5289C16.4542 13.2568 16.4092 13.703 16.162 14.432C15.4325 16.5824 13.337 18.0519 11.0002 18.0519C8.66333 18.0519 6.56787 16.5824 5.83839 14.432C5.58419 13.6826 5.54618 13.2605 5.54618 11.1857V9.30041L5.40814 9.1662C5.2186 8.98179 4.91616 8.98348 4.72443 9.16997L4.58251 9.30806L4.60354 11.5353C4.62434 13.7413 4.62597 13.7677 4.77329 14.2973C4.94427 14.9121 5.31706 15.71 5.68422 16.2473C6.20718 17.0124 7.09927 17.8051 7.91102 18.2259L8.25788 18.4058L8.22128 18.7088C8.14076 19.3752 7.67408 20.0001 7.05519 20.2702C6.79278 20.3848 6.58311 20.4251 6.04075 20.4651C5.66476 20.4929 5.17165 20.5651 4.94495 20.6256C4.7183 20.686 4.4989 20.7355 4.45741 20.7355C4.34141 20.7355 3.4302 19.8822 3.11719 19.4803C2.71989 18.9703 2.3078 18.1265 2.14193 17.4833C1.74823 15.9566 1.99001 14.444 2.8496 13.0556C3.32163 12.2932 3.46922 12.0084 3.65938 11.4933C3.96328 10.6699 3.98066 10.5147 4.02699 8.21159C4.06854 6.14667 4.07675 6.0281 4.21282 5.52529C4.37166 4.93835 4.63452 4.34885 4.95501 3.86064C5.22445 3.45025 5.92149 2.74738 6.36147 2.44237C7.07223 1.94967 8.01251 1.59178 8.87176 1.487C9.47659 1.41322 12.5237 1.41322 13.1286 1.487C14.3616 1.63739 15.4857 2.18845 16.3775 3.07983C17.0843 3.78621 17.5229 4.54694 17.7874 5.52529C17.9235 6.02887 17.9314 6.14476 17.9726 8.23894C18.0184 10.5702 18.0265 10.6419 18.3409 11.493C18.5287 12.0016 18.7458 12.4249 19.1041 12.9808C20.3467 14.9095 20.3553 17.1795 19.1273 19.1458C19.0178 19.3212 18.9281 19.5302 18.9281 19.6104C18.9281 19.8334 19.1586 20.0246 19.4275 20.0246C19.6171 20.0246 19.6772 19.9936 19.8253 19.8195C20.0531 19.5518 20.5181 18.6318 20.6927 18.1037C20.9344 17.3726 21.0272 16.6584 20.9932 15.7923C20.9479 14.6375 20.6744 13.726 20.0722 12.7224C19.0126 10.9567 18.929 10.62 18.9264 8.10872C18.9254 7.18774 18.9001 6.2496 18.8701 6.024C18.6845 4.62816 18.04 3.35285 17.0177 2.35853C16.0481 1.41546 14.8578 0.813819 13.5087 0.584998C12.8494 0.473157 9.11343 0.471134 8.48318 0.582208ZM13.2774 19.4876C13.1614 19.6217 13.1344 19.6985 13.1598 19.8219C13.233 20.178 13.8493 20.8034 14.3925 21.073C14.8154 21.2828 15.0785 21.3449 15.7513 21.3938C16.5819 21.4541 16.9633 21.5468 17.5787 21.8374C17.9717 22.023 18.147 22.1518 18.5647 22.5615C18.9727 22.9616 19.1192 23.1515 19.3079 23.5247C19.6983 24.2972 19.7249 24.4702 19.7645 26.4966L19.7996 28.2926L19.9324 28.397C20.1309 28.5532 20.3687 28.5306 20.5681 28.3367L20.7375 28.1719L20.7121 26.3269C20.6846 24.3311 20.6676 24.2033 20.3195 23.3792C19.9811 22.5784 19.2612 21.7439 18.4898 21.2585C17.6891 20.7548 17.0122 20.5428 15.9541 20.4647C15.0361 20.397 14.7125 20.2563 14.2043 19.7042C13.8811 19.353 13.8238 19.3136 13.6364 19.3136C13.4711 19.3136 13.3967 19.3497 13.2774 19.4876Z" fill="white" stroke="white" stroke-width="0.5"/>
</svg>
